<svg xmlns="http://www.w3.org/2000/svg" xmlns:xlink="http://www.w3.org/1999/xlink" width="300" zoomAndPan="magnify" viewBox="0 0 224.87999 74.999997" height="100" preserveAspectRatio="xMidYMid meet" version="1.0"><defs><filter x="0%" y="0%" width="100%" height="100%" id="45e9fef4c1"><feColorMatrix values="0 0 0 0 1 0 0 0 0 1 0 0 0 0 1 0 0 0 1 0" color-interpolation-filters="sRGB"/></filter><g/><clipPath id="cb4cbb6a7a"><path d="M 0 0.0195312 L 224.761719 0.0195312 L 224.761719 74.980469 L 0 74.980469 Z M 0 0.0195312 " clip-rule="nonzero"/></clipPath><clipPath id="9f959e6f35"><path d="M 0 24 L 35 24 L 35 74.980469 L 0 74.980469 Z M 0 24 " clip-rule="nonzero"/></clipPath><mask id="da4f8365d9"><g filter="url(#45e9fef4c1)"><rect x="-22.487999" width="269.855988" fill="#000000" y="-7.5" height="89.999996" fill-opacity="0.17"/></g></mask><clipPath id="1442f4faad"><path d="M 0 8 L 27 8 L 27 50.980469 L 0 50.980469 Z M 0 8 " clip-rule="nonzero"/></clipPath><clipPath id="87bf976288"><path d="M 0 6 L 29 6 L 29 50.980469 L 0 50.980469 Z M 0 6 " clip-rule="nonzero"/></clipPath><clipPath id="1103078470"><path d="M 0 4 L 31 4 L 31 50.980469 L 0 50.980469 Z M 0 4 " clip-rule="nonzero"/></clipPath><clipPath id="d35cf1a692"><path d="M 0 2 L 33 2 L 33 50.980469 L 0 50.980469 Z M 0 2 " clip-rule="nonzero"/></clipPath><clipPath id="42e919c403"><path d="M 0 0.835938 L 33.773438 0.835938 L 33.773438 50.980469 L 0 50.980469 Z M 0 0.835938 " clip-rule="nonzero"/></clipPath><clipPath id="3b91843871"><rect x="0" width="35" y="0" height="51"/></clipPath><clipPath id="9e88db2976"><path d="M 0 60 L 14 60 L 14 74.980469 L 0 74.980469 Z M 0 60 " clip-rule="nonzero"/></clipPath><clipPath id="ea887e9ced"><path d="M 1 40 L 34 40 L 34 74.980469 L 1 74.980469 Z M 1 40 " clip-rule="nonzero"/></clipPath><clipPath id="f648792783"><path d="M 7 29.859375 L 36.425781 29.859375 L 36.425781 58 L 7 58 Z M 7 29.859375 " clip-rule="nonzero"/></clipPath><clipPath id="c752947df6"><path d="M 212 0.0195312 L 224.761719 0.0195312 L 224.761719 15 L 212 15 Z M 212 0.0195312 " clip-rule="nonzero"/></clipPath><clipPath id="cc3c3a8cba"><path d="M 191 0.0195312 L 224 0.0195312 L 224 34 L 191 34 Z M 191 0.0195312 " clip-rule="nonzero"/></clipPath><clipPath id="9a454de510"><path d="M 189.320312 17 L 219 17 L 219 44.519531 L 189.320312 44.519531 Z M 189.320312 17 " clip-rule="nonzero"/></clipPath></defs><g clip-path="url(#cb4cbb6a7a)"><path fill="#ffffff" d="M 0 0.0195312 L 224.878906 0.0195312 L 224.878906 74.980469 L 0 74.980469 Z M 0 0.0195312 " fill-opacity="1" fill-rule="nonzero"/><path fill="#fad02c" d="M 0 0.0195312 L 224.878906 0.0195312 L 224.878906 74.980469 L 0 74.980469 Z M 0 0.0195312 " fill-opacity="1" fill-rule="nonzero"/></g><g clip-path="url(#9f959e6f35)"><g mask="url(#da4f8365d9)"><g transform="matrix(1, 0, 0, 1, 0, 24)"><g clip-path="url(#3b91843871)"><g clip-path="url(#1442f4faad)"><path fill="#c2fff3" d="M 26.753906 41.777344 C 26.789062 39.902344 26.585938 38.027344 26.277344 36.21875 C 26.175781 35.777344 26.140625 35.296875 26.003906 34.855469 L 25.699219 33.523438 L 25.324219 32.195312 C 25.1875 31.75 25.015625 31.34375 24.878906 30.898438 C 24.265625 29.160156 23.480469 27.488281 22.558594 25.851562 C 21.640625 24.214844 20.582031 22.613281 19.355469 21.078125 C 18.160156 19.578125 16.863281 18.179688 15.5 16.949219 C 14.136719 15.722656 12.703125 14.632812 11.203125 13.644531 C 10.828125 13.402344 10.453125 13.132812 10.078125 12.925781 L 8.917969 12.246094 C 8.507812 12.039062 8.101562 11.835938 7.726562 11.628906 C 7.316406 11.425781 6.90625 11.253906 6.496094 11.050781 C 4.828125 10.300781 3.085938 9.6875 1.246094 9.210938 C -0.664062 8.730469 -2.539062 8.425781 -4.449219 8.253906 C -5.40625 8.152344 -6.359375 8.152344 -7.28125 8.117188 C -7.757812 8.117188 -8.234375 8.152344 -8.679688 8.152344 C -9.15625 8.152344 -9.597656 8.21875 -10.078125 8.253906 C -11.953125 8.425781 -13.792969 8.699219 -15.566406 9.140625 C -17.511719 9.550781 -19.25 10.128906 -20.957031 10.878906 C -22.660156 11.597656 -24.296875 12.484375 -25.867188 13.507812 C -27.4375 14.53125 -28.9375 15.65625 -30.335938 16.917969 C -33.132812 19.472656 -35.550781 22.542969 -37.429688 26.054688 C -37.597656 26.433594 -38.007812 27.148438 -38.484375 28.238281 C -38.996094 29.332031 -39.578125 30.796875 -40.089844 32.636719 C -40.632812 34.445312 -41.078125 36.628906 -41.316406 39.117188 C -41.519531 41.609375 -41.519531 44.371094 -41.078125 47.304688 C -40.597656 50.234375 -39.78125 53.339844 -38.382812 56.339844 C -37.019531 59.375 -35.074219 62.34375 -32.6875 65.003906 C -31.460938 66.332031 -30.164062 67.59375 -28.730469 68.753906 C -28.355469 69.027344 -28.015625 69.332031 -27.640625 69.605469 C -27.265625 69.878906 -26.890625 70.152344 -26.515625 70.425781 C -26.140625 70.664062 -25.730469 70.9375 -25.355469 71.175781 C -24.980469 71.449219 -24.535156 71.652344 -24.160156 71.890625 C -22.523438 72.8125 -20.820312 73.597656 -19.046875 74.246094 C -17.273438 74.894531 -15.429688 75.371094 -13.589844 75.710938 C -11.746094 76.050781 -9.839844 76.257812 -7.960938 76.289062 C -6.085938 76.324219 -4.210938 76.222656 -2.371094 75.949219 C -0.527344 75.675781 1.246094 75.269531 2.984375 74.722656 C 4.722656 74.175781 6.359375 73.496094 7.929688 72.710938 C 9.5 71.925781 10.964844 71.039062 12.363281 70.050781 C 13.046875 69.574219 13.691406 69.0625 14.375 68.550781 C 14.988281 68.003906 15.636719 67.492188 16.214844 66.914062 C 18.570312 64.695312 20.410156 62.273438 21.878906 59.886719 C 23.34375 57.5 24.367188 55.113281 25.082031 52.964844 C 25.800781 50.816406 26.210938 48.871094 26.449219 47.234375 C 26.652344 45.597656 26.71875 44.300781 26.753906 43.414062 C 26.753906 42.527344 26.71875 42.015625 26.6875 41.984375 C 26.6875 41.949219 26.652344 42.222656 26.617188 42.734375 C 26.617188 42.972656 26.585938 43.277344 26.585938 43.621094 C 26.550781 43.960938 26.515625 44.335938 26.480469 44.78125 C 26.34375 46.484375 25.96875 48.734375 25.355469 50.984375 C 24.742188 53.238281 23.820312 55.417969 23.003906 57.054688 C 22.796875 57.464844 22.59375 57.839844 22.421875 58.183594 C 22.21875 58.523438 22.046875 58.796875 21.910156 59.070312 C 21.640625 59.582031 21.402344 59.886719 21.332031 59.988281 C 20.105469 61.863281 18.230469 64.355469 15.433594 66.878906 C 12.671875 69.367188 8.953125 71.824219 4.484375 73.496094 C 0.0195312 75.164062 -5.199219 75.914062 -10.554688 75.402344 C -15.875 74.894531 -21.230469 73.015625 -25.765625 69.949219 C -28.050781 68.445312 -30.097656 66.605469 -31.9375 64.660156 C -33.746094 62.683594 -35.28125 60.5 -36.542969 58.25 C -39.03125 53.714844 -40.292969 48.90625 -40.597656 44.507812 C -40.90625 40.105469 -40.328125 36.152344 -39.441406 33.082031 C -38.585938 29.976562 -37.496094 27.726562 -36.746094 26.363281 C -34.050781 21.28125 -30.128906 17.019531 -25.527344 14.019531 L -24.671875 13.472656 L -23.785156 12.960938 L -23.34375 12.6875 L -22.898438 12.449219 L -21.980469 11.972656 C -20.75 11.390625 -19.488281 10.847656 -18.195312 10.402344 C -15.636719 9.515625 -12.976562 8.902344 -10.246094 8.699219 C -7.554688 8.460938 -4.789062 8.527344 -2.097656 8.9375 C 0.597656 9.347656 3.257812 10.097656 5.816406 11.152344 C 10.898438 13.300781 15.601562 16.746094 19.253906 21.351562 C 20.445312 22.851562 21.503906 24.417969 22.421875 26.023438 C 23.34375 27.625 24.09375 29.296875 24.707031 31 C 24.84375 31.445312 25.015625 31.855469 25.152344 32.296875 L 25.5625 33.59375 C 25.765625 34.480469 26.003906 35.367188 26.140625 36.253906 C 26.449219 38.0625 26.652344 39.902344 26.652344 41.777344 C 26.652344 41.949219 26.6875 42.085938 26.6875 42.085938 C 26.753906 42.085938 26.753906 41.984375 26.753906 41.777344 Z M 26.753906 41.777344 " fill-opacity="1" fill-rule="nonzero"/></g><g clip-path="url(#87bf976288)"><path fill="#c2fff3" d="M 28.527344 41.777344 C 28.5625 39.800781 28.359375 37.855469 28.015625 35.945312 C 27.914062 35.46875 27.847656 34.992188 27.742188 34.515625 L 27.402344 33.117188 L 26.992188 31.71875 C 26.855469 31.242188 26.6875 30.796875 26.515625 30.355469 C 25.867188 28.546875 25.050781 26.773438 24.09375 25.035156 C 23.105469 23.292969 22.015625 21.625 20.71875 20.019531 C 19.457031 18.417969 18.09375 16.984375 16.660156 15.6875 C 15.226562 14.394531 13.726562 13.234375 12.125 12.175781 C 11.714844 11.9375 11.339844 11.664062 10.929688 11.425781 L 9.703125 10.710938 C 9.292969 10.503906 8.851562 10.265625 8.441406 10.0625 C 8.03125 9.824219 7.589844 9.652344 7.144531 9.449219 C 5.40625 8.664062 3.5625 8.015625 1.621094 7.503906 C -0.390625 6.992188 -2.371094 6.652344 -4.382812 6.480469 C -5.371094 6.378906 -6.394531 6.378906 -7.382812 6.34375 C -7.894531 6.34375 -8.371094 6.378906 -8.882812 6.378906 C -9.394531 6.378906 -9.871094 6.445312 -10.351562 6.480469 C -12.328125 6.652344 -14.238281 6.957031 -16.148438 7.402344 C -18.023438 7.878906 -19.898438 8.492188 -21.671875 9.277344 C -23.480469 10.027344 -25.183594 10.984375 -26.820312 12.039062 C -28.492188 13.0625 -30.0625 14.257812 -31.527344 15.585938 C -34.460938 18.28125 -37.019531 21.488281 -38.996094 25.203125 C -39.167969 25.578125 -39.609375 26.328125 -40.121094 27.488281 C -40.632812 28.648438 -41.246094 30.183594 -41.828125 32.125 C -42.371094 34.035156 -42.882812 36.355469 -43.125 38.949219 C -43.363281 41.539062 -43.328125 44.472656 -42.882812 47.574219 C -42.40625 50.644531 -41.519531 53.917969 -40.054688 57.089844 C -38.621094 60.296875 -36.574219 63.398438 -34.050781 66.230469 C -32.789062 67.628906 -31.390625 68.957031 -29.890625 70.152344 C -29.515625 70.460938 -29.140625 70.765625 -28.730469 71.039062 C -28.324219 71.3125 -27.945312 71.617188 -27.539062 71.890625 C -27.128906 72.164062 -26.71875 72.4375 -26.308594 72.675781 C -25.902344 72.949219 -25.457031 73.1875 -25.046875 73.425781 C -23.34375 74.382812 -21.535156 75.234375 -19.660156 75.914062 C -17.785156 76.597656 -15.875 77.109375 -13.929688 77.484375 C -11.988281 77.859375 -10.007812 78.0625 -8.03125 78.0625 C -6.054688 78.097656 -4.074219 77.996094 -2.164062 77.6875 C -0.253906 77.417969 1.65625 76.972656 3.460938 76.394531 C 5.269531 75.8125 7.007812 75.097656 8.679688 74.277344 C 10.351562 73.460938 11.886719 72.503906 13.351562 71.480469 C 14.101562 70.972656 14.785156 70.425781 15.464844 69.878906 C 16.113281 69.300781 16.796875 68.753906 17.375 68.175781 C 19.832031 65.855469 21.808594 63.296875 23.34375 60.808594 C 24.878906 58.285156 25.96875 55.792969 26.71875 53.542969 C 27.472656 51.257812 27.878906 49.210938 28.152344 47.507812 C 28.390625 45.800781 28.460938 44.4375 28.460938 43.484375 C 28.460938 42.527344 28.425781 42.015625 28.390625 41.984375 C 28.390625 41.949219 28.359375 42.253906 28.324219 42.765625 C 28.324219 43.039062 28.289062 43.347656 28.289062 43.6875 C 28.253906 44.0625 28.222656 44.472656 28.1875 44.914062 C 28.015625 46.6875 27.675781 49.109375 26.992188 51.464844 C 26.34375 53.816406 25.390625 56.136719 24.539062 57.839844 C 24.300781 58.285156 24.09375 58.660156 23.925781 59.035156 C 23.71875 59.375 23.550781 59.683594 23.378906 59.957031 C 23.070312 60.5 22.832031 60.84375 22.765625 60.910156 C 21.46875 62.886719 19.492188 65.515625 16.558594 68.140625 C 13.625 70.765625 9.738281 73.359375 5.03125 75.097656 C 0.324219 76.871094 -5.199219 77.65625 -10.792969 77.109375 C -13.589844 76.835938 -16.386719 76.1875 -19.113281 75.234375 C -21.84375 74.277344 -24.433594 72.949219 -26.820312 71.347656 C -29.242188 69.742188 -31.390625 67.832031 -33.335938 65.753906 C -35.246094 63.671875 -36.847656 61.355469 -38.179688 59 C -40.804688 54.226562 -42.132812 49.144531 -42.441406 44.507812 C -42.75 39.867188 -42.167969 35.707031 -41.214844 32.46875 C -40.292969 29.195312 -39.167969 26.839844 -38.382812 25.375 C -35.550781 20.019531 -31.425781 15.550781 -26.550781 12.382812 L -25.628906 11.800781 L -24.707031 11.253906 L -24.230469 10.984375 L -23.753906 10.742188 L -22.796875 10.234375 C -21.5 9.617188 -20.171875 9.039062 -18.839844 8.5625 C -16.148438 7.605469 -13.316406 6.992188 -10.484375 6.753906 C -7.65625 6.515625 -4.757812 6.582031 -1.925781 6.992188 C 0.90625 7.4375 3.699219 8.21875 6.394531 9.3125 C 11.75 11.5625 16.726562 15.210938 20.546875 20.054688 C 21.808594 21.65625 22.902344 23.292969 23.890625 25 C 24.84375 26.703125 25.628906 28.445312 26.3125 30.25 C 26.480469 30.695312 26.652344 31.136719 26.789062 31.617188 L 27.199219 32.980469 C 27.4375 33.898438 27.675781 34.855469 27.8125 35.777344 C 28.152344 37.6875 28.359375 39.628906 28.324219 41.609375 C 28.324219 41.777344 28.359375 41.914062 28.359375 41.949219 C 28.527344 42.085938 28.5625 41.984375 28.527344 41.777344 Z M 28.527344 41.777344 " fill-opacity="1" fill-rule="nonzero"/></g><g clip-path="url(#1103078470)"><path fill="#c2fff3" d="M 30.335938 41.777344 C 30.371094 39.699219 30.132812 37.652344 29.789062 35.640625 C 29.6875 35.128906 29.621094 34.652344 29.484375 34.140625 L 29.140625 32.671875 L 28.699219 31.207031 C 28.5625 30.730469 28.359375 30.25 28.222656 29.773438 C 27.539062 27.863281 26.6875 25.988281 25.664062 24.179688 C 24.640625 22.375 23.445312 20.601562 22.117188 18.894531 C 20.785156 17.222656 19.355469 15.722656 17.855469 14.324219 C 16.351562 12.960938 14.75 11.734375 13.078125 10.640625 C 12.671875 10.367188 12.261719 10.097656 11.816406 9.855469 L 10.523438 9.105469 C 10.078125 8.867188 9.636719 8.664062 9.191406 8.425781 C 8.75 8.1875 8.269531 8.015625 7.828125 7.777344 C 5.984375 6.957031 4.042969 6.277344 1.996094 5.730469 C -0.0859375 5.183594 -2.199219 4.84375 -4.3125 4.671875 C -5.371094 4.570312 -6.394531 4.539062 -7.449219 4.539062 C -7.960938 4.539062 -8.507812 4.570312 -9.019531 4.570312 C -9.53125 4.570312 -10.042969 4.640625 -10.554688 4.671875 C -12.601562 4.84375 -14.648438 5.152344 -16.625 5.664062 C -18.601562 6.175781 -20.546875 6.820312 -22.421875 7.640625 C -24.265625 8.390625 -26.070312 9.378906 -27.8125 10.503906 C -29.550781 11.628906 -31.1875 12.894531 -32.722656 14.289062 C -35.789062 17.121094 -38.484375 20.496094 -40.53125 24.386719 C -40.734375 24.792969 -41.179688 25.578125 -41.726562 26.808594 C -42.269531 28 -42.917969 29.636719 -43.5 31.648438 C -44.078125 33.660156 -44.589844 36.082031 -44.828125 38.8125 C -45.066406 41.539062 -45.03125 44.609375 -44.554688 47.847656 C -44.042969 51.089844 -43.125 54.5 -41.554688 57.839844 C -40.019531 61.183594 -37.90625 64.457031 -35.246094 67.425781 C -33.914062 68.890625 -32.449219 70.289062 -30.847656 71.550781 C -30.4375 71.859375 -30.0625 72.199219 -29.652344 72.472656 C -29.242188 72.777344 -28.832031 73.050781 -28.390625 73.359375 C -27.945312 73.632812 -27.539062 73.902344 -27.09375 74.175781 C -26.652344 74.449219 -26.207031 74.6875 -25.765625 74.960938 C -23.957031 75.984375 -22.082031 76.835938 -20.101562 77.585938 C -18.160156 78.304688 -16.113281 78.847656 -14.066406 79.222656 C -12.019531 79.597656 -9.941406 79.835938 -7.859375 79.835938 C -5.78125 79.871094 -3.734375 79.769531 -1.6875 79.460938 C 0.324219 79.15625 2.300781 78.710938 4.210938 78.097656 C 6.121094 77.484375 7.964844 76.734375 9.667969 75.882812 C 11.410156 75.027344 13.046875 74.039062 14.546875 72.949219 C 15.332031 72.4375 16.046875 71.859375 16.761719 71.277344 C 17.445312 70.699219 18.160156 70.117188 18.773438 69.503906 C 21.367188 67.082031 23.414062 64.390625 25.050781 61.761719 C 26.652344 59.136719 27.777344 56.511719 28.597656 54.125 C 29.378906 51.738281 29.824219 49.589844 30.097656 47.78125 C 30.335938 45.972656 30.402344 44.574219 30.4375 43.585938 C 30.4375 42.597656 30.402344 42.050781 30.371094 42.015625 C 30.371094 41.984375 30.335938 42.289062 30.300781 42.835938 C 30.300781 43.109375 30.265625 43.449219 30.265625 43.824219 C 30.234375 44.199219 30.199219 44.644531 30.164062 45.085938 C 29.996094 46.960938 29.621094 49.484375 28.902344 51.941406 C 28.222656 54.429688 27.230469 56.851562 26.3125 58.660156 C 26.074219 59.101562 25.867188 59.511719 25.664062 59.886719 C 25.457031 60.261719 25.253906 60.570312 25.082031 60.875 C 24.777344 61.457031 24.539062 61.796875 24.46875 61.898438 C 23.105469 63.980469 21.058594 66.742188 17.988281 69.503906 C 14.921875 72.265625 10.828125 74.996094 5.882812 76.800781 C 0.9375 78.644531 -4.859375 79.496094 -10.726562 78.917969 C -13.792969 78.710938 -16.726562 78.03125 -19.59375 77.007812 C -22.457031 76.019531 -25.183594 74.621094 -27.707031 72.949219 C -30.230469 71.277344 -32.515625 69.265625 -34.527344 67.082031 C -36.542969 64.898438 -38.246094 62.480469 -39.609375 59.988281 C -42.371094 54.976562 -43.769531 49.621094 -44.078125 44.746094 C -44.417969 39.867188 -43.769531 35.503906 -42.816406 32.125 C -41.863281 28.714844 -40.632812 26.191406 -39.847656 24.660156 C -36.847656 19.03125 -32.515625 14.324219 -27.4375 11.015625 C -27.128906 10.8125 -26.789062 10.609375 -26.480469 10.402344 L -25.492188 9.824219 L -25.015625 9.550781 L -24.503906 9.277344 L -23.480469 8.765625 C -22.117188 8.117188 -20.71875 7.503906 -19.320312 7.027344 C -16.488281 6.039062 -13.519531 5.390625 -10.519531 5.117188 C -7.519531 4.84375 -4.519531 4.914062 -1.515625 5.390625 C 1.449219 5.867188 4.417969 6.652344 7.246094 7.84375 C 12.875 10.234375 18.09375 14.019531 22.082031 19.097656 C 23.414062 20.769531 24.570312 22.507812 25.5625 24.28125 C 26.550781 26.054688 27.402344 27.933594 28.085938 29.808594 C 28.253906 30.285156 28.425781 30.761719 28.5625 31.242188 L 29.003906 32.671875 C 29.246094 33.660156 29.484375 34.617188 29.652344 35.640625 C 29.996094 37.617188 30.234375 39.664062 30.199219 41.742188 C 30.199219 41.914062 30.234375 42.085938 30.234375 42.085938 C 30.300781 42.085938 30.335938 41.984375 30.335938 41.777344 Z M 30.335938 41.777344 " fill-opacity="1" fill-rule="nonzero"/></g><g clip-path="url(#d35cf1a692)"><path fill="#c2fff3" d="M 32.109375 41.742188 C 32.144531 39.5625 31.90625 37.414062 31.5625 35.332031 C 31.460938 34.820312 31.394531 34.277344 31.257812 33.765625 L 30.882812 32.230469 L 30.4375 30.695312 C 30.300781 30.183594 30.097656 29.671875 29.925781 29.195312 C 29.210938 27.183594 28.324219 25.238281 27.265625 23.328125 C 26.210938 21.417969 24.949219 19.578125 23.550781 17.804688 C 22.152344 16.0625 20.648438 14.460938 19.082031 13.027344 C 17.511719 11.597656 15.839844 10.335938 14.101562 9.175781 C 13.660156 8.902344 13.25 8.59375 12.773438 8.355469 C 12.328125 8.085938 11.886719 7.84375 11.410156 7.574219 C 10.929688 7.332031 10.488281 7.09375 10.011719 6.855469 C 9.53125 6.617188 9.054688 6.414062 8.578125 6.175781 C 6.632812 5.320312 4.621094 4.605469 2.472656 4.027344 C 0.289062 3.480469 -1.925781 3.105469 -4.144531 2.898438 C -5.234375 2.796875 -6.324219 2.765625 -7.417969 2.765625 C -7.960938 2.765625 -8.507812 2.796875 -9.054688 2.796875 C -9.597656 2.796875 -10.144531 2.867188 -10.691406 2.898438 C -12.839844 3.070312 -14.988281 3.410156 -17.066406 3.921875 C -19.148438 4.433594 -21.195312 5.152344 -23.136719 5.96875 C -25.117188 6.820312 -26.992188 7.84375 -28.800781 9.003906 C -30.605469 10.164062 -32.347656 11.496094 -33.949219 12.960938 C -37.1875 15.929688 -39.984375 19.472656 -42.132812 23.53125 C -42.339844 23.941406 -42.816406 24.792969 -43.363281 26.054688 C -43.941406 27.316406 -44.625 29.023438 -45.238281 31.136719 C -45.851562 33.253906 -46.398438 35.777344 -46.636719 38.640625 C -46.910156 41.539062 -46.875 44.746094 -46.363281 48.121094 C -45.816406 51.496094 -44.863281 55.078125 -43.226562 58.589844 C -41.621094 62.105469 -39.40625 65.515625 -36.644531 68.617188 C -35.246094 70.152344 -33.710938 71.617188 -32.039062 72.949219 C -31.628906 73.289062 -31.222656 73.632812 -30.777344 73.9375 C -30.335938 74.246094 -29.890625 74.550781 -29.480469 74.859375 C -29.039062 75.164062 -28.59375 75.4375 -28.117188 75.746094 C -27.675781 76.050781 -27.195312 76.289062 -26.71875 76.5625 C -24.84375 77.621094 -22.867188 78.542969 -20.820312 79.292969 C -18.773438 80.042969 -16.660156 80.589844 -14.511719 80.996094 C -12.363281 81.40625 -10.179688 81.609375 -8.03125 81.644531 C -5.847656 81.679688 -3.699219 81.578125 -1.585938 81.234375 C 0.527344 80.929688 2.609375 80.453125 4.585938 79.835938 C 6.601562 79.222656 8.507812 78.40625 10.316406 77.519531 C 12.160156 76.632812 13.828125 75.574219 15.433594 74.449219 C 16.25 73.902344 17 73.289062 17.75 72.710938 C 18.46875 72.097656 19.21875 71.480469 19.867188 70.835938 C 22.558594 68.277344 24.742188 65.480469 26.414062 62.71875 C 28.085938 59.957031 29.277344 57.226562 30.132812 54.703125 C 30.949219 52.214844 31.425781 49.964844 31.699219 48.085938 C 31.9375 46.210938 32.039062 44.710938 32.039062 43.6875 C 32.039062 42.664062 32.039062 42.085938 32.007812 42.050781 C 32.007812 42.015625 31.972656 42.359375 31.9375 42.902344 C 31.9375 43.175781 31.90625 43.515625 31.90625 43.925781 C 31.871094 44.335938 31.835938 44.78125 31.800781 45.257812 C 31.632812 47.234375 31.222656 49.859375 30.472656 52.453125 C 29.757812 55.042969 28.699219 57.601562 27.742188 59.476562 C 27.503906 59.957031 27.265625 60.398438 27.0625 60.773438 C 26.824219 61.148438 26.652344 61.488281 26.480469 61.796875 C 26.140625 62.375 25.902344 62.75 25.832031 62.855469 C 24.4375 65.003906 22.253906 67.9375 19.046875 70.835938 C 15.839844 73.734375 11.578125 76.597656 6.359375 78.507812 C 1.175781 80.453125 -4.894531 81.339844 -11.066406 80.722656 C -14.136719 80.417969 -17.238281 79.734375 -20.238281 78.679688 C -23.242188 77.621094 -26.105469 76.15625 -28.730469 74.414062 C -31.390625 72.675781 -33.777344 70.5625 -35.894531 68.277344 C -38.007812 65.992188 -39.78125 63.433594 -41.246094 60.84375 C -44.144531 55.589844 -45.613281 49.964844 -45.953125 44.882812 C -46.292969 39.765625 -45.648438 35.195312 -44.625 31.648438 C -43.53125 28.035156 -42.269531 25.410156 -41.417969 23.804688 C -38.28125 17.90625 -33.746094 12.996094 -28.390625 9.480469 C -28.050781 9.277344 -27.707031 9.039062 -27.402344 8.835938 L -26.378906 8.21875 L -25.867188 7.914062 L -25.355469 7.640625 L -24.296875 7.09375 C -22.867188 6.414062 -21.433594 5.765625 -19.933594 5.289062 C -16.964844 4.265625 -13.863281 3.582031 -10.726562 3.308594 C -7.585938 3.035156 -4.414062 3.105469 -1.277344 3.582031 C 1.859375 4.058594 4.929688 4.914062 7.894531 6.175781 C 13.796875 8.664062 19.253906 12.652344 23.445312 17.972656 C 24.84375 19.714844 26.039062 21.554688 27.097656 23.394531 C 28.152344 25.273438 29.003906 27.214844 29.757812 29.195312 C 29.925781 29.707031 30.132812 30.183594 30.265625 30.695312 L 30.710938 32.195312 C 30.949219 33.21875 31.222656 34.242188 31.394531 35.296875 C 31.769531 37.378906 31.972656 39.527344 31.972656 41.710938 C 31.972656 41.914062 32.007812 42.050781 32.007812 42.085938 C 32.109375 42.085938 32.109375 41.949219 32.109375 41.742188 Z M 32.109375 41.742188 " fill-opacity="1" fill-rule="nonzero"/></g><g clip-path="url(#42e919c403)"><path fill="#c2fff3" d="M 33.882812 41.742188 C 33.917969 39.460938 33.679688 37.242188 33.300781 35.027344 C 33.199219 34.480469 33.132812 33.933594 32.996094 33.390625 L 32.621094 31.75 L 32.144531 30.148438 C 32.007812 29.601562 31.800781 29.089844 31.597656 28.582031 C 30.847656 26.5 29.925781 24.453125 28.835938 22.441406 C 27.710938 20.464844 26.414062 18.519531 24.949219 16.644531 C 23.480469 14.800781 21.945312 13.164062 20.308594 11.664062 C 18.671875 10.164062 16.933594 8.835938 15.089844 7.640625 C 14.613281 7.367188 14.171875 7.027344 13.691406 6.753906 C 13.214844 6.480469 12.738281 6.207031 12.261719 5.933594 C 11.785156 5.695312 11.273438 5.425781 10.792969 5.183594 C 10.316406 4.914062 9.804688 4.707031 9.292969 4.46875 C 7.28125 3.582031 5.167969 2.796875 2.917969 2.21875 C 0.632812 1.636719 -1.6875 1.261719 -3.972656 1.058594 C -5.132812 0.957031 -6.257812 0.921875 -7.417969 0.886719 C -7.996094 0.886719 -8.542969 0.921875 -9.121094 0.921875 C -9.703125 0.921875 -10.246094 0.992188 -10.828125 1.023438 C -13.042969 1.296875 -15.292969 1.636719 -17.476562 2.183594 C -19.660156 2.730469 -21.773438 3.445312 -23.820312 4.332031 C -25.867188 5.21875 -27.84375 6.277344 -29.753906 7.503906 C -31.628906 8.730469 -33.4375 10.097656 -35.144531 11.628906 C -38.519531 14.699219 -41.453125 18.417969 -43.703125 22.679688 C -43.90625 23.125 -44.417969 23.976562 -45 25.339844 C -45.613281 26.671875 -46.292969 28.445312 -46.941406 30.660156 C -47.589844 32.878906 -48.136719 35.503906 -48.410156 38.503906 C -48.683594 41.503906 -48.648438 44.847656 -48.101562 48.394531 C -47.558594 51.941406 -46.535156 55.691406 -44.828125 59.339844 C -43.15625 63.023438 -40.839844 66.605469 -37.941406 69.8125 C -36.472656 71.414062 -34.871094 72.949219 -33.132812 74.3125 C -32.6875 74.652344 -32.277344 75.027344 -31.800781 75.335938 C -31.359375 75.675781 -30.878906 75.984375 -30.4375 76.324219 C -29.960938 76.632812 -29.480469 76.9375 -29.003906 77.246094 C -28.527344 77.554688 -28.050781 77.824219 -27.539062 78.097656 C -25.558594 79.222656 -23.515625 80.179688 -21.363281 80.964844 C -19.214844 81.746094 -17 82.328125 -14.75 82.738281 C -12.5 83.144531 -10.214844 83.382812 -7.960938 83.417969 C -5.710938 83.453125 -3.425781 83.316406 -1.246094 83.007812 C 0.972656 82.667969 3.121094 82.191406 5.234375 81.542969 C 7.316406 80.894531 9.328125 80.042969 11.238281 79.121094 C 13.148438 78.199219 14.921875 77.074219 16.59375 75.914062 C 17.445312 75.335938 18.230469 74.722656 19.011719 74.074219 C 19.761719 73.425781 20.515625 72.8125 21.230469 72.128906 C 24.0625 69.46875 26.3125 66.539062 28.085938 63.671875 C 29.859375 60.773438 31.085938 57.910156 31.972656 55.316406 C 32.824219 52.691406 33.335938 50.339844 33.609375 48.394531 C 33.882812 46.417969 33.949219 44.882812 33.984375 43.789062 C 33.984375 42.699219 33.984375 42.121094 33.949219 42.085938 C 33.949219 42.050781 33.917969 42.390625 33.882812 42.972656 C 33.882812 43.277344 33.847656 43.621094 33.847656 44.027344 C 33.8125 44.4375 33.78125 44.914062 33.746094 45.425781 C 33.574219 47.472656 33.132812 50.234375 32.382812 52.929688 C 31.632812 55.660156 30.539062 58.285156 29.550781 60.296875 C 29.3125 60.773438 29.074219 61.25 28.835938 61.660156 C 28.597656 62.070312 28.390625 62.410156 28.222656 62.71875 C 27.878906 63.332031 27.605469 63.707031 27.539062 63.84375 C 26.074219 66.09375 23.789062 69.128906 20.445312 72.164062 C 17.101562 75.164062 12.636719 78.167969 7.179688 80.179688 C 1.757812 82.226562 -4.585938 83.113281 -11.03125 82.496094 C -14.273438 82.191406 -17.511719 81.441406 -20.613281 80.347656 C -23.753906 79.257812 -26.753906 77.722656 -29.515625 75.882812 C -32.414062 74.074219 -34.9375 71.890625 -37.15625 69.503906 C -39.371094 67.117188 -41.214844 64.457031 -42.75 61.730469 C -45.785156 56.238281 -47.316406 50.339844 -47.660156 45.019531 C -48.035156 39.699219 -47.316406 34.921875 -46.261719 31.171875 C -45.203125 27.421875 -43.875 24.660156 -42.988281 22.988281 C -39.714844 16.78125 -34.9375 11.664062 -29.34375 8.015625 C -29.003906 7.777344 -28.664062 7.574219 -28.289062 7.332031 L -27.195312 6.71875 L -26.652344 6.414062 L -26.105469 6.140625 L -25.015625 5.558594 C -23.515625 4.84375 -22.011719 4.195312 -20.445312 3.652344 C -17.339844 2.558594 -14.101562 1.84375 -10.792969 1.570312 C -7.519531 1.296875 -4.210938 1.367188 -0.9375 1.84375 C 2.335938 2.355469 5.578125 3.242188 8.679688 4.539062 C 14.851562 7.164062 20.546875 11.324219 24.949219 16.882812 C 26.378906 18.722656 27.675781 20.601562 28.765625 22.578125 C 29.859375 24.554688 30.777344 26.566406 31.527344 28.648438 C 31.699219 29.160156 31.90625 29.671875 32.074219 30.21875 L 32.550781 31.785156 C 32.824219 32.84375 33.097656 33.933594 33.269531 35.027344 C 33.644531 37.207031 33.882812 39.425781 33.882812 41.710938 C 33.882812 41.914062 33.917969 42.085938 33.917969 42.085938 C 33.882812 42.085938 33.917969 41.949219 33.882812 41.742188 Z M 33.882812 41.742188 " fill-opacity="1" fill-rule="nonzero"/></g></g></g></g></g><g clip-path="url(#9e88db2976)"><path fill="#888b8b" d="M 7.257812 89.3125 L -14.550781 69.347656 L 13.644531 60.445312 Z M -11.488281 70.027344 L 6.3125 86.320312 L 11.523438 62.757812 Z M -11.488281 70.027344 " fill-opacity="1" fill-rule="nonzero"/></g><g clip-path="url(#ea887e9ced)"><path fill="#000000" d="M 1.96875 76.375 L 4.089844 40.761719 L 33.871094 60.402344 Z M 5.496094 43.570312 L 3.699219 73.753906 L 30.738281 60.21875 Z M 5.496094 43.570312 " fill-opacity="1" fill-rule="nonzero"/></g><g clip-path="url(#f648792783)"><path fill="#888b8b" d="M 7.183594 57.15625 L 18.550781 29.863281 L 36.503906 53.351562 Z M 18.953125 32.972656 L 9.675781 55.25 L 33.609375 52.144531 Z M 18.953125 32.972656 " fill-opacity="1" fill-rule="nonzero"/></g><g fill="#000000" fill-opacity="1"><g transform="translate(29.571154, 38.04201)"><g><path d="M 6.90625 0.1875 C 5.769531 0.1875 4.640625 0.0390625 3.515625 -0.25 C 2.398438 -0.550781 1.492188 -0.960938 0.796875 -1.484375 L 2.0625 -4.34375 C 2.800781 -3.863281 3.585938 -3.5 4.421875 -3.25 C 5.265625 -3 6.109375 -2.875 6.953125 -2.875 C 7.816406 -2.875 8.476562 -2.988281 8.9375 -3.21875 C 9.394531 -3.457031 9.625 -3.796875 9.625 -4.234375 C 9.625 -4.617188 9.414062 -4.9375 9 -5.1875 C 8.582031 -5.4375 7.800781 -5.679688 6.65625 -5.921875 C 5.207031 -6.210938 4.082031 -6.566406 3.28125 -6.984375 C 2.476562 -7.410156 1.914062 -7.910156 1.59375 -8.484375 C 1.269531 -9.054688 1.109375 -9.75 1.109375 -10.5625 C 1.109375 -11.488281 1.375 -12.328125 1.90625 -13.078125 C 2.4375 -13.835938 3.179688 -14.425781 4.140625 -14.84375 C 5.097656 -15.269531 6.191406 -15.484375 7.421875 -15.484375 C 8.523438 -15.484375 9.59375 -15.328125 10.625 -15.015625 C 11.664062 -14.710938 12.484375 -14.304688 13.078125 -13.796875 L 11.828125 -10.953125 C 11.148438 -11.421875 10.441406 -11.78125 9.703125 -12.03125 C 8.960938 -12.28125 8.21875 -12.40625 7.46875 -12.40625 C 6.738281 -12.40625 6.148438 -12.265625 5.703125 -11.984375 C 5.265625 -11.710938 5.046875 -11.335938 5.046875 -10.859375 C 5.046875 -10.609375 5.125 -10.394531 5.28125 -10.21875 C 5.4375 -10.050781 5.726562 -9.882812 6.15625 -9.71875 C 6.59375 -9.550781 7.238281 -9.375 8.09375 -9.1875 C 9.476562 -8.882812 10.566406 -8.519531 11.359375 -8.09375 C 12.160156 -7.675781 12.722656 -7.1875 13.046875 -6.625 C 13.378906 -6.0625 13.546875 -5.382812 13.546875 -4.59375 C 13.546875 -3.101562 12.960938 -1.929688 11.796875 -1.078125 C 10.640625 -0.234375 9.007812 0.1875 6.90625 0.1875 Z M 6.90625 0.1875 "/></g></g></g><g fill="#000000" fill-opacity="1"><g transform="translate(43.389366, 38.04201)"><g><path d="M 11.234375 -5.0625 L 4.375 -5.0625 C 4.445312 -4.21875 4.691406 -3.609375 5.109375 -3.234375 C 5.523438 -2.867188 6.132812 -2.6875 6.9375 -2.6875 C 7.476562 -2.6875 8.019531 -2.773438 8.5625 -2.953125 C 9.101562 -3.128906 9.597656 -3.375 10.046875 -3.6875 L 11.03125 -1.109375 C 10.488281 -0.710938 9.832031 -0.398438 9.0625 -0.171875 C 8.289062 0.0546875 7.515625 0.171875 6.734375 0.171875 C 5.492188 0.171875 4.414062 -0.0546875 3.5 -0.515625 C 2.582031 -0.972656 1.878906 -1.625 1.390625 -2.46875 C 0.910156 -3.320312 0.671875 -4.332031 0.671875 -5.5 C 0.671875 -6.601562 0.898438 -7.585938 1.359375 -8.453125 C 1.828125 -9.316406 2.472656 -9.988281 3.296875 -10.46875 C 4.117188 -10.957031 5.0625 -11.203125 6.125 -11.203125 C 7.15625 -11.203125 8.054688 -10.972656 8.828125 -10.515625 C 9.597656 -10.054688 10.191406 -9.398438 10.609375 -8.546875 C 11.023438 -7.703125 11.234375 -6.710938 11.234375 -5.578125 Z M 6.21875 -8.546875 C 5.257812 -8.546875 4.660156 -7.988281 4.421875 -6.875 L 7.90625 -6.875 C 7.757812 -7.988281 7.195312 -8.546875 6.21875 -8.546875 Z M 6.21875 -8.546875 "/></g></g></g><g fill="#000000" fill-opacity="1"><g transform="translate(54.654162, 38.04201)"><g><path d="M 1.15625 0 L 1.15625 -15.796875 L 5.046875 -15.796875 L 5.046875 0 Z M 1.15625 0 "/></g></g></g><g fill="#000000" fill-opacity="1"><g transform="translate(60.254226, 38.04201)"><g><path d="M 11.234375 -5.0625 L 4.375 -5.0625 C 4.445312 -4.21875 4.691406 -3.609375 5.109375 -3.234375 C 5.523438 -2.867188 6.132812 -2.6875 6.9375 -2.6875 C 7.476562 -2.6875 8.019531 -2.773438 8.5625 -2.953125 C 9.101562 -3.128906 9.597656 -3.375 10.046875 -3.6875 L 11.03125 -1.109375 C 10.488281 -0.710938 9.832031 -0.398438 9.0625 -0.171875 C 8.289062 0.0546875 7.515625 0.171875 6.734375 0.171875 C 5.492188 0.171875 4.414062 -0.0546875 3.5 -0.515625 C 2.582031 -0.972656 1.878906 -1.625 1.390625 -2.46875 C 0.910156 -3.320312 0.671875 -4.332031 0.671875 -5.5 C 0.671875 -6.601562 0.898438 -7.585938 1.359375 -8.453125 C 1.828125 -9.316406 2.472656 -9.988281 3.296875 -10.46875 C 4.117188 -10.957031 5.0625 -11.203125 6.125 -11.203125 C 7.15625 -11.203125 8.054688 -10.972656 8.828125 -10.515625 C 9.597656 -10.054688 10.191406 -9.398438 10.609375 -8.546875 C 11.023438 -7.703125 11.234375 -6.710938 11.234375 -5.578125 Z M 6.21875 -8.546875 C 5.257812 -8.546875 4.660156 -7.988281 4.421875 -6.875 L 7.90625 -6.875 C 7.757812 -7.988281 7.195312 -8.546875 6.21875 -8.546875 Z M 6.21875 -8.546875 "/></g></g></g><g fill="#000000" fill-opacity="1"><g transform="translate(71.519023, 38.04201)"><g><path d="M 6.5625 0.171875 C 4.71875 0.171875 3.273438 -0.328125 2.234375 -1.328125 C 1.191406 -2.328125 0.671875 -3.695312 0.671875 -5.4375 C 0.671875 -6.582031 0.921875 -7.585938 1.421875 -8.453125 C 1.929688 -9.328125 2.644531 -10.003906 3.5625 -10.484375 C 4.476562 -10.960938 5.535156 -11.203125 6.734375 -11.203125 C 7.535156 -11.203125 8.320312 -11.082031 9.09375 -10.84375 C 9.875 -10.613281 10.492188 -10.296875 10.953125 -9.890625 L 9.96875 -7.21875 C 9.570312 -7.53125 9.117188 -7.78125 8.609375 -7.96875 C 8.097656 -8.15625 7.601562 -8.25 7.125 -8.25 C 6.320312 -8.25 5.707031 -8.019531 5.28125 -7.5625 C 4.851562 -7.101562 4.640625 -6.421875 4.640625 -5.515625 C 4.640625 -4.597656 4.851562 -3.90625 5.28125 -3.4375 C 5.707031 -2.976562 6.332031 -2.75 7.15625 -2.75 C 7.625 -2.75 8.109375 -2.84375 8.609375 -3.03125 C 9.117188 -3.21875 9.570312 -3.46875 9.96875 -3.78125 L 10.953125 -1.140625 C 10.472656 -0.722656 9.84375 -0.398438 9.0625 -0.171875 C 8.289062 0.0546875 7.457031 0.171875 6.5625 0.171875 Z M 6.5625 0.171875 "/></g></g></g><g fill="#000000" fill-opacity="1"><g transform="translate(81.968436, 38.04201)"><g><path d="M 6.5625 0.171875 C 4.71875 0.171875 3.273438 -0.328125 2.234375 -1.328125 C 1.191406 -2.328125 0.671875 -3.695312 0.671875 -5.4375 C 0.671875 -6.582031 0.921875 -7.585938 1.421875 -8.453125 C 1.929688 -9.328125 2.644531 -10.003906 3.5625 -10.484375 C 4.476562 -10.960938 5.535156 -11.203125 6.734375 -11.203125 C 7.535156 -11.203125 8.320312 -11.082031 9.09375 -10.84375 C 9.875 -10.613281 10.492188 -10.296875 10.953125 -9.890625 L 9.96875 -7.21875 C 9.570312 -7.53125 9.117188 -7.78125 8.609375 -7.96875 C 8.097656 -8.15625 7.601562 -8.25 7.125 -8.25 C 6.320312 -8.25 5.707031 -8.019531 5.28125 -7.5625 C 4.851562 -7.101562 4.640625 -6.421875 4.640625 -5.515625 C 4.640625 -4.597656 4.851562 -3.90625 5.28125 -3.4375 C 5.707031 -2.976562 6.332031 -2.75 7.15625 -2.75 C 7.625 -2.75 8.109375 -2.84375 8.609375 -3.03125 C 9.117188 -3.21875 9.570312 -3.46875 9.96875 -3.78125 L 10.953125 -1.140625 C 10.472656 -0.722656 9.84375 -0.398438 9.0625 -0.171875 C 8.289062 0.0546875 7.457031 0.171875 6.5625 0.171875 Z M 6.5625 0.171875 "/></g></g></g><g fill="#000000" fill-opacity="1"><g transform="translate(92.41785, 38.04201)"><g><path d="M 1.15625 0 L 1.15625 -10.90625 L 5.046875 -10.90625 L 5.046875 0 Z M 1.046875 -16.25 L 5.109375 -16.25 L 5.109375 -12.75 L 1.046875 -12.75 Z M 1.046875 -16.25 "/></g></g></g><g fill="#000000" fill-opacity="1"><g transform="translate(98.017911, 38.04201)"><g><path d="M 6.65625 0.171875 C 5.4375 0.171875 4.375 -0.0546875 3.46875 -0.515625 C 2.570312 -0.972656 1.878906 -1.628906 1.390625 -2.484375 C 0.910156 -3.347656 0.671875 -4.359375 0.671875 -5.515625 C 0.671875 -6.671875 0.910156 -7.675781 1.390625 -8.53125 C 1.878906 -9.394531 2.570312 -10.054688 3.46875 -10.515625 C 4.375 -10.972656 5.4375 -11.203125 6.65625 -11.203125 C 7.851562 -11.203125 8.898438 -10.96875 9.796875 -10.5 C 10.691406 -10.039062 11.382812 -9.382812 11.875 -8.53125 C 12.363281 -7.675781 12.609375 -6.671875 12.609375 -5.515625 C 12.609375 -4.359375 12.363281 -3.351562 11.875 -2.5 C 11.382812 -1.644531 10.691406 -0.984375 9.796875 -0.515625 C 8.898438 -0.0546875 7.851562 0.171875 6.65625 0.171875 Z M 6.65625 -2.71875 C 8.0625 -2.71875 8.765625 -3.648438 8.765625 -5.515625 C 8.765625 -6.460938 8.585938 -7.160156 8.234375 -7.609375 C 7.878906 -8.054688 7.351562 -8.28125 6.65625 -8.28125 C 5.9375 -8.28125 5.398438 -8.054688 5.046875 -7.609375 C 4.691406 -7.160156 4.515625 -6.460938 4.515625 -5.515625 C 4.515625 -4.554688 4.691406 -3.847656 5.046875 -3.390625 C 5.398438 -2.941406 5.9375 -2.71875 6.65625 -2.71875 Z M 6.65625 -2.71875 "/></g></g></g><g fill="#000000" fill-opacity="1"><g transform="translate(110.67743, 38.04201)"><g><path d="M 8.453125 -11.203125 C 9.742188 -11.203125 10.707031 -10.8125 11.34375 -10.03125 C 11.976562 -9.25 12.296875 -8.070312 12.296875 -6.5 L 12.296875 0 L 8.421875 0 L 8.421875 -6.328125 C 8.421875 -7.003906 8.304688 -7.488281 8.078125 -7.78125 C 7.847656 -8.070312 7.488281 -8.21875 7 -8.21875 C 6.414062 -8.21875 5.941406 -8.019531 5.578125 -7.625 C 5.222656 -7.238281 5.046875 -6.722656 5.046875 -6.078125 L 5.046875 0 L 1.15625 0 L 1.15625 -7.765625 C 1.15625 -8.941406 1.097656 -9.988281 0.984375 -10.90625 L 4.640625 -10.90625 L 4.828125 -9.296875 C 5.242188 -9.910156 5.757812 -10.378906 6.375 -10.703125 C 6.988281 -11.035156 7.679688 -11.203125 8.453125 -11.203125 Z M 8.453125 -11.203125 "/></g></g></g><g fill="#000000" fill-opacity="1"><g transform="translate(123.465695, 38.04201)"><g><path d="M 12.640625 -10.90625 L 12.640625 0 L 8.828125 0 L 8.828125 -1.484375 C 8.503906 -0.960938 8.039062 -0.554688 7.4375 -0.265625 C 6.84375 0.0234375 6.1875 0.171875 5.46875 0.171875 C 4.539062 0.171875 3.710938 -0.0546875 2.984375 -0.515625 C 2.253906 -0.972656 1.6875 -1.625 1.28125 -2.46875 C 0.875 -3.320312 0.671875 -4.3125 0.671875 -5.4375 C 0.671875 -6.5625 0.875 -7.5625 1.28125 -8.4375 C 1.695312 -9.3125 2.269531 -9.988281 3 -10.46875 C 3.726562 -10.957031 4.550781 -11.203125 5.46875 -11.203125 C 6.1875 -11.203125 6.84375 -11.046875 7.4375 -10.734375 C 8.03125 -10.429688 8.492188 -10.023438 8.828125 -9.515625 L 8.828125 -10.90625 Z M 6.671875 -2.71875 C 7.359375 -2.71875 7.890625 -2.953125 8.265625 -3.421875 C 8.640625 -3.898438 8.828125 -4.582031 8.828125 -5.46875 C 8.828125 -6.375 8.640625 -7.066406 8.265625 -7.546875 C 7.890625 -8.023438 7.359375 -8.265625 6.671875 -8.265625 C 6.003906 -8.265625 5.476562 -8.015625 5.09375 -7.515625 C 4.707031 -7.023438 4.515625 -6.332031 4.515625 -5.4375 C 4.515625 -4.5625 4.695312 -3.890625 5.0625 -3.421875 C 5.4375 -2.953125 5.972656 -2.71875 6.671875 -2.71875 Z M 6.671875 -2.71875 "/></g></g></g><g fill="#000000" fill-opacity="1"><g transform="translate(136.661644, 38.04201)"><g/></g></g><g fill="#000000" fill-opacity="1"><g transform="translate(142.283163, 38.04201)"><g><path d="M 4.8125 0 L 4.8125 -12.015625 L 0.25 -12.015625 L 0.25 -15.28125 L 13.4375 -15.28125 L 13.4375 -12.015625 L 8.890625 -12.015625 L 8.890625 0 Z M 4.8125 0 "/></g></g></g><g fill="#000000" fill-opacity="1"><g transform="translate(155.371823, 38.04201)"><g><path d="M 1.15625 0 L 1.15625 -10.90625 L 5.046875 -10.90625 L 5.046875 0 Z M 1.046875 -16.25 L 5.109375 -16.25 L 5.109375 -12.75 L 1.046875 -12.75 Z M 1.046875 -16.25 "/></g></g></g><g fill="#000000" fill-opacity="1"><g transform="translate(160.971884, 38.04201)"><g><path d="M 8.34375 -11.203125 C 9.28125 -11.203125 10.113281 -10.957031 10.84375 -10.46875 C 11.570312 -9.988281 12.144531 -9.3125 12.5625 -8.4375 C 12.976562 -7.5625 13.1875 -6.5625 13.1875 -5.4375 C 13.1875 -4.3125 12.976562 -3.320312 12.5625 -2.46875 C 12.15625 -1.625 11.585938 -0.972656 10.859375 -0.515625 C 10.128906 -0.0546875 9.289062 0.171875 8.34375 0.171875 C 7.632812 0.171875 6.984375 0.03125 6.390625 -0.25 C 5.804688 -0.53125 5.359375 -0.921875 5.046875 -1.421875 L 5.046875 4.640625 L 1.15625 4.640625 L 1.15625 -7.765625 C 1.15625 -8.941406 1.097656 -9.988281 0.984375 -10.90625 L 4.640625 -10.90625 L 4.859375 -9.203125 C 5.128906 -9.804688 5.578125 -10.289062 6.203125 -10.65625 C 6.835938 -11.019531 7.550781 -11.203125 8.34375 -11.203125 Z M 7.171875 -2.71875 C 7.867188 -2.71875 8.394531 -2.945312 8.75 -3.40625 C 9.113281 -3.863281 9.296875 -4.539062 9.296875 -5.4375 C 9.296875 -6.332031 9.113281 -7.023438 8.75 -7.515625 C 8.382812 -8.015625 7.859375 -8.265625 7.171875 -8.265625 C 6.472656 -8.265625 5.9375 -8.023438 5.5625 -7.546875 C 5.1875 -7.078125 5 -6.382812 5 -5.46875 C 5 -4.582031 5.1875 -3.898438 5.5625 -3.421875 C 5.9375 -2.953125 6.472656 -2.71875 7.171875 -2.71875 Z M 7.171875 -2.71875 "/></g></g></g><g fill="#000000" fill-opacity="1"><g transform="translate(174.210749, 38.04201)"><g><path d="M 6.65625 0.171875 C 5.4375 0.171875 4.375 -0.0546875 3.46875 -0.515625 C 2.570312 -0.972656 1.878906 -1.628906 1.390625 -2.484375 C 0.910156 -3.347656 0.671875 -4.359375 0.671875 -5.515625 C 0.671875 -6.671875 0.910156 -7.675781 1.390625 -8.53125 C 1.878906 -9.394531 2.570312 -10.054688 3.46875 -10.515625 C 4.375 -10.972656 5.4375 -11.203125 6.65625 -11.203125 C 7.851562 -11.203125 8.898438 -10.96875 9.796875 -10.5 C 10.691406 -10.039062 11.382812 -9.382812 11.875 -8.53125 C 12.363281 -7.675781 12.609375 -6.671875 12.609375 -5.515625 C 12.609375 -4.359375 12.363281 -3.351562 11.875 -2.5 C 11.382812 -1.644531 10.691406 -0.984375 9.796875 -0.515625 C 8.898438 -0.0546875 7.851562 0.171875 6.65625 0.171875 Z M 6.65625 -2.71875 C 8.0625 -2.71875 8.765625 -3.648438 8.765625 -5.515625 C 8.765625 -6.460938 8.585938 -7.160156 8.234375 -7.609375 C 7.878906 -8.054688 7.351562 -8.28125 6.65625 -8.28125 C 5.9375 -8.28125 5.398438 -8.054688 5.046875 -7.609375 C 4.691406 -7.160156 4.515625 -6.460938 4.515625 -5.515625 C 4.515625 -4.554688 4.691406 -3.847656 5.046875 -3.390625 C 5.398438 -2.941406 5.9375 -2.71875 6.65625 -2.71875 Z M 6.65625 -2.71875 "/></g></g></g><g fill="#000000" fill-opacity="1"><g transform="translate(51.649214, 57.531609)"><g><path d="M 1.375 -15.28125 L 7.625 -15.28125 C 9.3125 -15.28125 10.765625 -14.972656 11.984375 -14.359375 C 13.210938 -13.753906 14.148438 -12.878906 14.796875 -11.734375 C 15.453125 -10.597656 15.78125 -9.242188 15.78125 -7.671875 C 15.78125 -6.078125 15.457031 -4.703125 14.8125 -3.546875 C 14.164062 -2.398438 13.226562 -1.519531 12 -0.90625 C 10.78125 -0.300781 9.320312 0 7.625 0 L 1.375 0 Z M 7.34375 -3.21875 C 8.832031 -3.21875 9.941406 -3.585938 10.671875 -4.328125 C 11.410156 -5.066406 11.78125 -6.179688 11.78125 -7.671875 C 11.78125 -10.597656 10.300781 -12.0625 7.34375 -12.0625 L 5.40625 -12.0625 L 5.40625 -3.21875 Z M 7.34375 -3.21875 "/></g></g></g><g fill="#000000" fill-opacity="1"><g transform="translate(67.806278, 57.531609)"><g><path d="M 11.234375 -5.0625 L 4.375 -5.0625 C 4.445312 -4.21875 4.691406 -3.609375 5.109375 -3.234375 C 5.523438 -2.867188 6.132812 -2.6875 6.9375 -2.6875 C 7.476562 -2.6875 8.019531 -2.773438 8.5625 -2.953125 C 9.101562 -3.128906 9.597656 -3.375 10.046875 -3.6875 L 11.03125 -1.109375 C 10.488281 -0.710938 9.832031 -0.398438 9.0625 -0.171875 C 8.289062 0.0546875 7.515625 0.171875 6.734375 0.171875 C 5.492188 0.171875 4.414062 -0.0546875 3.5 -0.515625 C 2.582031 -0.972656 1.878906 -1.625 1.390625 -2.46875 C 0.910156 -3.320312 0.671875 -4.332031 0.671875 -5.5 C 0.671875 -6.601562 0.898438 -7.585938 1.359375 -8.453125 C 1.828125 -9.316406 2.472656 -9.988281 3.296875 -10.46875 C 4.117188 -10.957031 5.0625 -11.203125 6.125 -11.203125 C 7.15625 -11.203125 8.054688 -10.972656 8.828125 -10.515625 C 9.597656 -10.054688 10.191406 -9.398438 10.609375 -8.546875 C 11.023438 -7.703125 11.234375 -6.710938 11.234375 -5.578125 Z M 6.21875 -8.546875 C 5.257812 -8.546875 4.660156 -7.988281 4.421875 -6.875 L 7.90625 -6.875 C 7.757812 -7.988281 7.195312 -8.546875 6.21875 -8.546875 Z M 6.21875 -8.546875 "/></g></g></g><g fill="#000000" fill-opacity="1"><g transform="translate(79.071074, 57.531609)"><g/></g></g><g fill="#000000" fill-opacity="1"><g transform="translate(84.692596, 57.531609)"><g><path d="M 14.65625 0 L 10.390625 0 L 8.421875 -5.09375 C 8.191406 -5.664062 7.65625 -5.953125 6.8125 -5.953125 L 5.34375 -5.953125 L 5.34375 0 L 1.375 0 L 1.375 -15.28125 L 8.484375 -15.28125 C 10.328125 -15.28125 11.710938 -14.882812 12.640625 -14.09375 C 13.578125 -13.300781 14.046875 -12.164062 14.046875 -10.6875 C 14.046875 -9.65625 13.769531 -8.765625 13.21875 -8.015625 C 12.664062 -7.265625 11.890625 -6.734375 10.890625 -6.421875 C 11.316406 -6.335938 11.703125 -6.132812 12.046875 -5.8125 C 12.390625 -5.5 12.660156 -5.078125 12.859375 -4.546875 Z M 7.84375 -8.953125 C 8.695312 -8.953125 9.316406 -9.082031 9.703125 -9.34375 C 10.085938 -9.613281 10.28125 -10.023438 10.28125 -10.578125 C 10.28125 -11.171875 10.085938 -11.59375 9.703125 -11.84375 C 9.328125 -12.101562 8.707031 -12.234375 7.84375 -12.234375 L 5.296875 -12.234375 L 5.296875 -8.953125 Z M 7.84375 -8.953125 "/></g></g></g><g fill="#000000" fill-opacity="1"><g transform="translate(99.412019, 57.531609)"><g><path d="M 11.234375 -5.0625 L 4.375 -5.0625 C 4.445312 -4.21875 4.691406 -3.609375 5.109375 -3.234375 C 5.523438 -2.867188 6.132812 -2.6875 6.9375 -2.6875 C 7.476562 -2.6875 8.019531 -2.773438 8.5625 -2.953125 C 9.101562 -3.128906 9.597656 -3.375 10.046875 -3.6875 L 11.03125 -1.109375 C 10.488281 -0.710938 9.832031 -0.398438 9.0625 -0.171875 C 8.289062 0.0546875 7.515625 0.171875 6.734375 0.171875 C 5.492188 0.171875 4.414062 -0.0546875 3.5 -0.515625 C 2.582031 -0.972656 1.878906 -1.625 1.390625 -2.46875 C 0.910156 -3.320312 0.671875 -4.332031 0.671875 -5.5 C 0.671875 -6.601562 0.898438 -7.585938 1.359375 -8.453125 C 1.828125 -9.316406 2.472656 -9.988281 3.296875 -10.46875 C 4.117188 -10.957031 5.0625 -11.203125 6.125 -11.203125 C 7.15625 -11.203125 8.054688 -10.972656 8.828125 -10.515625 C 9.597656 -10.054688 10.191406 -9.398438 10.609375 -8.546875 C 11.023438 -7.703125 11.234375 -6.710938 11.234375 -5.578125 Z M 6.21875 -8.546875 C 5.257812 -8.546875 4.660156 -7.988281 4.421875 -6.875 L 7.90625 -6.875 C 7.757812 -7.988281 7.195312 -8.546875 6.21875 -8.546875 Z M 6.21875 -8.546875 "/></g></g></g><g fill="#000000" fill-opacity="1"><g transform="translate(110.676813, 57.531609)"><g><path d="M 8.34375 -11.203125 C 9.28125 -11.203125 10.113281 -10.957031 10.84375 -10.46875 C 11.570312 -9.988281 12.144531 -9.3125 12.5625 -8.4375 C 12.976562 -7.5625 13.1875 -6.5625 13.1875 -5.4375 C 13.1875 -4.3125 12.976562 -3.320312 12.5625 -2.46875 C 12.15625 -1.625 11.585938 -0.972656 10.859375 -0.515625 C 10.128906 -0.0546875 9.289062 0.171875 8.34375 0.171875 C 7.632812 0.171875 6.984375 0.03125 6.390625 -0.25 C 5.804688 -0.53125 5.359375 -0.921875 5.046875 -1.421875 L 5.046875 4.640625 L 1.15625 4.640625 L 1.15625 -7.765625 C 1.15625 -8.941406 1.097656 -9.988281 0.984375 -10.90625 L 4.640625 -10.90625 L 4.859375 -9.203125 C 5.128906 -9.804688 5.578125 -10.289062 6.203125 -10.65625 C 6.835938 -11.019531 7.550781 -11.203125 8.34375 -11.203125 Z M 7.171875 -2.71875 C 7.867188 -2.71875 8.394531 -2.945312 8.75 -3.40625 C 9.113281 -3.863281 9.296875 -4.539062 9.296875 -5.4375 C 9.296875 -6.332031 9.113281 -7.023438 8.75 -7.515625 C 8.382812 -8.015625 7.859375 -8.265625 7.171875 -8.265625 C 6.472656 -8.265625 5.9375 -8.023438 5.5625 -7.546875 C 5.1875 -7.078125 5 -6.382812 5 -5.46875 C 5 -4.582031 5.1875 -3.898438 5.5625 -3.421875 C 5.9375 -2.953125 6.472656 -2.71875 7.171875 -2.71875 Z M 7.171875 -2.71875 "/></g></g></g><g fill="#000000" fill-opacity="1"><g transform="translate(123.915677, 57.531609)"><g><path d="M 6.65625 0.171875 C 5.4375 0.171875 4.375 -0.0546875 3.46875 -0.515625 C 2.570312 -0.972656 1.878906 -1.628906 1.390625 -2.484375 C 0.910156 -3.347656 0.671875 -4.359375 0.671875 -5.515625 C 0.671875 -6.671875 0.910156 -7.675781 1.390625 -8.53125 C 1.878906 -9.394531 2.570312 -10.054688 3.46875 -10.515625 C 4.375 -10.972656 5.4375 -11.203125 6.65625 -11.203125 C 7.851562 -11.203125 8.898438 -10.96875 9.796875 -10.5 C 10.691406 -10.039062 11.382812 -9.382812 11.875 -8.53125 C 12.363281 -7.675781 12.609375 -6.671875 12.609375 -5.515625 C 12.609375 -4.359375 12.363281 -3.351562 11.875 -2.5 C 11.382812 -1.644531 10.691406 -0.984375 9.796875 -0.515625 C 8.898438 -0.0546875 7.851562 0.171875 6.65625 0.171875 Z M 6.65625 -2.71875 C 8.0625 -2.71875 8.765625 -3.648438 8.765625 -5.515625 C 8.765625 -6.460938 8.585938 -7.160156 8.234375 -7.609375 C 7.878906 -8.054688 7.351562 -8.28125 6.65625 -8.28125 C 5.9375 -8.28125 5.398438 -8.054688 5.046875 -7.609375 C 4.691406 -7.160156 4.515625 -6.460938 4.515625 -5.515625 C 4.515625 -4.554688 4.691406 -3.847656 5.046875 -3.390625 C 5.398438 -2.941406 5.9375 -2.71875 6.65625 -2.71875 Z M 6.65625 -2.71875 "/></g></g></g><g fill="#000000" fill-opacity="1"><g transform="translate(136.575196, 57.531609)"><g><path d="M 8.046875 -11.15625 C 8.578125 -11.15625 8.988281 -11.078125 9.28125 -10.921875 L 9.28125 -7.390625 C 8.65625 -7.671875 8.0625 -7.8125 7.5 -7.8125 C 5.863281 -7.8125 5.046875 -7.03125 5.046875 -5.46875 L 5.046875 0 L 1.15625 0 L 1.15625 -7.765625 C 1.15625 -8.941406 1.097656 -9.988281 0.984375 -10.90625 L 4.640625 -10.90625 L 4.875 -9.078125 C 5.132812 -9.753906 5.550781 -10.269531 6.125 -10.625 C 6.695312 -10.976562 7.335938 -11.15625 8.046875 -11.15625 Z M 8.046875 -11.15625 "/></g></g></g><g fill="#000000" fill-opacity="1"><g transform="translate(145.200742, 57.531609)"><g><path d="M 7.59375 -2.96875 C 7.851562 -2.96875 8.195312 -3.007812 8.625 -3.09375 L 8.625 -0.15625 C 8.101562 0.0625 7.429688 0.171875 6.609375 0.171875 C 5.140625 0.171875 4.019531 -0.238281 3.25 -1.0625 C 2.488281 -1.894531 2.109375 -3.050781 2.109375 -4.53125 L 2.109375 -8.046875 L 0.0625 -8.046875 L 0.0625 -10.90625 L 2.109375 -10.90625 L 2.109375 -13.375 L 5.984375 -14.625 L 5.984375 -10.90625 L 8.609375 -10.90625 L 8.609375 -8.046875 L 5.984375 -8.046875 L 5.984375 -4.53125 C 5.984375 -4.007812 6.132812 -3.617188 6.4375 -3.359375 C 6.75 -3.097656 7.132812 -2.96875 7.59375 -2.96875 Z M 7.59375 -2.96875 "/></g></g></g><g fill="#000000" fill-opacity="1"><g transform="translate(153.525881, 57.531609)"><g><path d="M 11.234375 -5.0625 L 4.375 -5.0625 C 4.445312 -4.21875 4.691406 -3.609375 5.109375 -3.234375 C 5.523438 -2.867188 6.132812 -2.6875 6.9375 -2.6875 C 7.476562 -2.6875 8.019531 -2.773438 8.5625 -2.953125 C 9.101562 -3.128906 9.597656 -3.375 10.046875 -3.6875 L 11.03125 -1.109375 C 10.488281 -0.710938 9.832031 -0.398438 9.0625 -0.171875 C 8.289062 0.0546875 7.515625 0.171875 6.734375 0.171875 C 5.492188 0.171875 4.414062 -0.0546875 3.5 -0.515625 C 2.582031 -0.972656 1.878906 -1.625 1.390625 -2.46875 C 0.910156 -3.320312 0.671875 -4.332031 0.671875 -5.5 C 0.671875 -6.601562 0.898438 -7.585938 1.359375 -8.453125 C 1.828125 -9.316406 2.472656 -9.988281 3.296875 -10.46875 C 4.117188 -10.957031 5.0625 -11.203125 6.125 -11.203125 C 7.15625 -11.203125 8.054688 -10.972656 8.828125 -10.515625 C 9.597656 -10.054688 10.191406 -9.398438 10.609375 -8.546875 C 11.023438 -7.703125 11.234375 -6.710938 11.234375 -5.578125 Z M 6.21875 -8.546875 C 5.257812 -8.546875 4.660156 -7.988281 4.421875 -6.875 L 7.90625 -6.875 C 7.757812 -7.988281 7.195312 -8.546875 6.21875 -8.546875 Z M 6.21875 -8.546875 "/></g></g></g><g fill="#000000" fill-opacity="1"><g transform="translate(85.071775, 70.550108)"><g><path d="M 0.734375 0 L 0.734375 -5.890625 L 4.453125 -5.890625 L 4.453125 -5.328125 L 1.40625 -5.328125 L 1.40625 -3.28125 L 4.296875 -3.28125 L 4.296875 -2.703125 L 1.40625 -2.703125 L 1.40625 -0.5625 L 4.453125 -0.5625 L 4.453125 0 Z M 0.734375 0 "/></g></g></g><g fill="#000000" fill-opacity="1"><g transform="translate(90.298117, 70.550108)"><g><path d="M 2.59375 0.0625 C 1.675781 0.0625 0.941406 -0.179688 0.390625 -0.671875 L 0.65625 -1.203125 C 0.945312 -0.953125 1.242188 -0.773438 1.546875 -0.671875 C 1.847656 -0.566406 2.203125 -0.515625 2.609375 -0.515625 C 3.085938 -0.515625 3.453125 -0.601562 3.703125 -0.78125 C 3.960938 -0.96875 4.09375 -1.234375 4.09375 -1.578125 C 4.09375 -1.773438 4.03125 -1.9375 3.90625 -2.0625 C 3.78125 -2.1875 3.613281 -2.28125 3.40625 -2.34375 C 3.207031 -2.414062 2.941406 -2.492188 2.609375 -2.578125 C 2.148438 -2.671875 1.773438 -2.773438 1.484375 -2.890625 C 1.191406 -3.015625 0.953125 -3.179688 0.765625 -3.390625 C 0.585938 -3.609375 0.5 -3.894531 0.5 -4.25 C 0.5 -4.59375 0.585938 -4.890625 0.765625 -5.140625 C 0.941406 -5.398438 1.191406 -5.601562 1.515625 -5.75 C 1.835938 -5.894531 2.21875 -5.96875 2.65625 -5.96875 C 3.0625 -5.96875 3.441406 -5.898438 3.796875 -5.765625 C 4.148438 -5.640625 4.445312 -5.457031 4.6875 -5.21875 L 4.421875 -4.703125 C 4.148438 -4.929688 3.867188 -5.097656 3.578125 -5.203125 C 3.296875 -5.316406 2.988281 -5.375 2.65625 -5.375 C 2.195312 -5.375 1.835938 -5.273438 1.578125 -5.078125 C 1.316406 -4.890625 1.1875 -4.625 1.1875 -4.28125 C 1.1875 -3.976562 1.296875 -3.753906 1.515625 -3.609375 C 1.742188 -3.460938 2.09375 -3.332031 2.5625 -3.21875 C 3.070312 -3.101562 3.472656 -2.992188 3.765625 -2.890625 C 4.054688 -2.785156 4.296875 -2.628906 4.484375 -2.421875 C 4.679688 -2.210938 4.78125 -1.9375 4.78125 -1.59375 C 4.78125 -1.257812 4.691406 -0.96875 4.515625 -0.71875 C 4.335938 -0.46875 4.082031 -0.273438 3.75 -0.140625 C 3.425781 -0.00390625 3.039062 0.0625 2.59375 0.0625 Z M 2.59375 0.0625 "/></g></g></g><g fill="#000000" fill-opacity="1"><g transform="translate(95.81436, 70.550108)"><g><path d="M 2.15625 0 L 2.15625 -5.3125 L 0.09375 -5.3125 L 0.09375 -5.890625 L 4.890625 -5.890625 L 4.890625 -5.3125 L 2.84375 -5.3125 L 2.84375 0 Z M 2.15625 0 "/></g></g></g><g fill="#000000" fill-opacity="1"><g transform="translate(101.164947, 70.550108)"><g><path d="M 3.03125 0.0625 C 2.257812 0.0625 1.675781 -0.132812 1.28125 -0.53125 C 0.882812 -0.9375 0.6875 -1.53125 0.6875 -2.3125 L 0.6875 -5.890625 L 1.359375 -5.890625 L 1.359375 -2.25 C 1.359375 -1.675781 1.5 -1.242188 1.78125 -0.953125 C 2.0625 -0.660156 2.476562 -0.515625 3.03125 -0.515625 C 3.570312 -0.515625 3.984375 -0.660156 4.265625 -0.953125 C 4.546875 -1.242188 4.6875 -1.675781 4.6875 -2.25 L 4.6875 -5.890625 L 5.359375 -5.890625 L 5.359375 -2.3125 C 5.359375 -1.53125 5.160156 -0.9375 4.765625 -0.53125 C 4.367188 -0.132812 3.789062 0.0625 3.03125 0.0625 Z M 3.03125 0.0625 "/></g></g></g><g fill="#000000" fill-opacity="1"><g transform="translate(107.575712, 70.550108)"><g><path d="M 0.734375 -5.890625 L 2.703125 -5.890625 C 3.648438 -5.890625 4.378906 -5.632812 4.890625 -5.125 C 5.410156 -4.613281 5.671875 -3.890625 5.671875 -2.953125 C 5.671875 -2.015625 5.410156 -1.285156 4.890625 -0.765625 C 4.378906 -0.253906 3.648438 0 2.703125 0 L 0.734375 0 Z M 2.671875 -0.578125 C 3.429688 -0.578125 4 -0.773438 4.375 -1.171875 C 4.757812 -1.566406 4.953125 -2.160156 4.953125 -2.953125 C 4.953125 -4.523438 4.191406 -5.3125 2.671875 -5.3125 L 1.40625 -5.3125 L 1.40625 -0.578125 Z M 2.671875 -0.578125 "/></g></g></g><g fill="#000000" fill-opacity="1"><g transform="translate(114.11071, 70.550108)"><g><path d="M 0.734375 0 L 0.734375 -5.890625 L 1.40625 -5.890625 L 1.40625 0 Z M 0.734375 0 "/></g></g></g><g fill="#000000" fill-opacity="1"><g transform="translate(116.603784, 70.550108)"><g><path d="M 5.234375 0 L 4.59375 -1.515625 L 1.5 -1.515625 L 0.859375 0 L 0.15625 0 L 2.734375 -5.890625 L 3.34375 -5.890625 L 5.921875 0 Z M 1.75 -2.078125 L 4.34375 -2.078125 L 3.046875 -5.109375 Z M 1.75 -2.078125 "/></g></g></g><g fill="#000000" fill-opacity="1"><g transform="translate(123.039393, 70.550108)"><g><path d="M 4.8125 -5.890625 L 5.453125 -5.890625 L 5.453125 0 L 4.921875 0 L 1.359375 -4.75 L 1.359375 0 L 0.734375 0 L 0.734375 -5.890625 L 1.25 -5.890625 L 4.8125 -1.15625 Z M 4.8125 -5.890625 "/></g></g></g><g fill="#000000" fill-opacity="1"><g transform="translate(129.574394, 70.550108)"><g><path d="M 2.15625 0 L 2.15625 -5.3125 L 0.09375 -5.3125 L 0.09375 -5.890625 L 4.890625 -5.890625 L 4.890625 -5.3125 L 2.84375 -5.3125 L 2.84375 0 Z M 2.15625 0 "/></g></g></g><g fill="#000000" fill-opacity="1"><g transform="translate(134.924981, 70.550108)"><g><path d="M 0.734375 0 L 0.734375 -5.890625 L 4.453125 -5.890625 L 4.453125 -5.328125 L 1.40625 -5.328125 L 1.40625 -3.28125 L 4.296875 -3.28125 L 4.296875 -2.703125 L 1.40625 -2.703125 L 1.40625 -0.5625 L 4.453125 -0.5625 L 4.453125 0 Z M 0.734375 0 "/></g></g></g><g fill="#000000" fill-opacity="1"><g transform="translate(140.159595, 70.550108)"><g/></g></g><g clip-path="url(#c752947df6)"><path fill="#888b8b" d="M 218.484375 -14.699219 L 240.292969 5.265625 L 212.097656 14.171875 Z M 237.230469 4.589844 L 219.429688 -11.707031 L 214.21875 11.855469 Z M 237.230469 4.589844 " fill-opacity="1" fill-rule="nonzero"/></g><g clip-path="url(#cc3c3a8cba)"><path fill="#000000" d="M 223.773438 -1.761719 L 221.65625 33.851562 L 191.875 14.210938 Z M 220.25 31.046875 L 222.046875 0.859375 L 195.003906 14.394531 Z M 220.25 31.046875 " fill-opacity="1" fill-rule="nonzero"/></g><g clip-path="url(#9a454de510)"><path fill="#888b8b" d="M 218.558594 17.457031 L 207.195312 44.753906 L 189.238281 21.265625 Z M 206.792969 41.640625 L 216.066406 19.363281 L 192.136719 22.46875 Z M 206.792969 41.640625 " fill-opacity="1" fill-rule="nonzero"/></g></svg>