<svg xmlns="http://www.w3.org/2000/svg" xmlns:xlink="http://www.w3.org/1999/xlink" width="300" zoomAndPan="magnify" viewBox="0 0 224.87999 74.999997" height="100" preserveAspectRatio="xMidYMid meet" version="1.0"><defs><g/><clipPath id="9a6d4c4388"><path d="M 0 0.0195312 L 224.761719 0.0195312 L 224.761719 74.980469 L 0 74.980469 Z M 0 0.0195312 " clip-rule="nonzero"/></clipPath></defs><g clip-path="url(#9a6d4c4388)"><path fill="#ffffff" d="M 0 0.0195312 L 224.878906 0.0195312 L 224.878906 74.980469 L 0 74.980469 Z M 0 0.0195312 " fill-opacity="1" fill-rule="nonzero"/><path fill="#ffffff" d="M 0 0.0195312 L 224.878906 0.0195312 L 224.878906 74.980469 L 0 74.980469 Z M 0 0.0195312 " fill-opacity="1" fill-rule="nonzero"/></g><g fill="#000000" fill-opacity="1"><g transform="translate(51.577922, 35.251196)"><g><path d="M 14.65625 0 L 10.390625 0 L 8.421875 -5.09375 C 8.191406 -5.664062 7.65625 -5.953125 6.8125 -5.953125 L 5.34375 -5.953125 L 5.34375 0 L 1.375 0 L 1.375 -15.28125 L 8.484375 -15.28125 C 10.328125 -15.28125 11.710938 -14.882812 12.640625 -14.09375 C 13.578125 -13.300781 14.046875 -12.164062 14.046875 -10.6875 C 14.046875 -9.65625 13.769531 -8.765625 13.21875 -8.015625 C 12.664062 -7.265625 11.890625 -6.734375 10.890625 -6.421875 C 11.316406 -6.335938 11.703125 -6.132812 12.046875 -5.8125 C 12.390625 -5.5 12.660156 -5.078125 12.859375 -4.546875 Z M 7.84375 -8.953125 C 8.695312 -8.953125 9.316406 -9.082031 9.703125 -9.34375 C 10.085938 -9.613281 10.28125 -10.023438 10.28125 -10.578125 C 10.28125 -11.171875 10.085938 -11.59375 9.703125 -11.84375 C 9.328125 -12.101562 8.707031 -12.234375 7.84375 -12.234375 L 5.296875 -12.234375 L 5.296875 -8.953125 Z M 7.84375 -8.953125 "/></g></g></g><g fill="#000000" fill-opacity="1"><g transform="translate(66.297345, 35.251196)"><g><path d="M 11.234375 -5.0625 L 4.375 -5.0625 C 4.445312 -4.21875 4.691406 -3.609375 5.109375 -3.234375 C 5.523438 -2.867188 6.132812 -2.6875 6.9375 -2.6875 C 7.476562 -2.6875 8.019531 -2.773438 8.5625 -2.953125 C 9.101562 -3.128906 9.597656 -3.375 10.046875 -3.6875 L 11.03125 -1.109375 C 10.488281 -0.710938 9.832031 -0.398438 9.0625 -0.171875 C 8.289062 0.0546875 7.515625 0.171875 6.734375 0.171875 C 5.492188 0.171875 4.414062 -0.0546875 3.5 -0.515625 C 2.582031 -0.972656 1.878906 -1.625 1.390625 -2.46875 C 0.910156 -3.320312 0.671875 -4.332031 0.671875 -5.5 C 0.671875 -6.601562 0.898438 -7.585938 1.359375 -8.453125 C 1.828125 -9.316406 2.472656 -9.988281 3.296875 -10.46875 C 4.117188 -10.957031 5.0625 -11.203125 6.125 -11.203125 C 7.15625 -11.203125 8.054688 -10.972656 8.828125 -10.515625 C 9.597656 -10.054688 10.191406 -9.398438 10.609375 -8.546875 C 11.023438 -7.703125 11.234375 -6.710938 11.234375 -5.578125 Z M 6.21875 -8.546875 C 5.257812 -8.546875 4.660156 -7.988281 4.421875 -6.875 L 7.90625 -6.875 C 7.757812 -7.988281 7.195312 -8.546875 6.21875 -8.546875 Z M 6.21875 -8.546875 "/></g></g></g><g fill="#000000" fill-opacity="1"><g transform="translate(77.562141, 35.251196)"><g><path d="M 8.34375 -11.203125 C 9.28125 -11.203125 10.113281 -10.957031 10.84375 -10.46875 C 11.570312 -9.988281 12.144531 -9.3125 12.5625 -8.4375 C 12.976562 -7.5625 13.1875 -6.5625 13.1875 -5.4375 C 13.1875 -4.3125 12.976562 -3.320312 12.5625 -2.46875 C 12.15625 -1.625 11.585938 -0.972656 10.859375 -0.515625 C 10.128906 -0.0546875 9.289062 0.171875 8.34375 0.171875 C 7.632812 0.171875 6.984375 0.03125 6.390625 -0.25 C 5.804688 -0.53125 5.359375 -0.921875 5.046875 -1.421875 L 5.046875 4.640625 L 1.15625 4.640625 L 1.15625 -7.765625 C 1.15625 -8.941406 1.097656 -9.988281 0.984375 -10.90625 L 4.640625 -10.90625 L 4.859375 -9.203125 C 5.128906 -9.804688 5.578125 -10.289062 6.203125 -10.65625 C 6.835938 -11.019531 7.550781 -11.203125 8.34375 -11.203125 Z M 7.171875 -2.71875 C 7.867188 -2.71875 8.394531 -2.945312 8.75 -3.40625 C 9.113281 -3.863281 9.296875 -4.539062 9.296875 -5.4375 C 9.296875 -6.332031 9.113281 -7.023438 8.75 -7.515625 C 8.382812 -8.015625 7.859375 -8.265625 7.171875 -8.265625 C 6.472656 -8.265625 5.9375 -8.023438 5.5625 -7.546875 C 5.1875 -7.078125 5 -6.382812 5 -5.46875 C 5 -4.582031 5.1875 -3.898438 5.5625 -3.421875 C 5.9375 -2.953125 6.472656 -2.71875 7.171875 -2.71875 Z M 7.171875 -2.71875 "/></g></g></g><g fill="#000000" fill-opacity="1"><g transform="translate(90.801008, 35.251196)"><g><path d="M 6.65625 0.171875 C 5.4375 0.171875 4.375 -0.0546875 3.46875 -0.515625 C 2.570312 -0.972656 1.878906 -1.628906 1.390625 -2.484375 C 0.910156 -3.347656 0.671875 -4.359375 0.671875 -5.515625 C 0.671875 -6.671875 0.910156 -7.675781 1.390625 -8.53125 C 1.878906 -9.394531 2.570312 -10.054688 3.46875 -10.515625 C 4.375 -10.972656 5.4375 -11.203125 6.65625 -11.203125 C 7.851562 -11.203125 8.898438 -10.96875 9.796875 -10.5 C 10.691406 -10.039062 11.382812 -9.382812 11.875 -8.53125 C 12.363281 -7.675781 12.609375 -6.671875 12.609375 -5.515625 C 12.609375 -4.359375 12.363281 -3.351562 11.875 -2.5 C 11.382812 -1.644531 10.691406 -0.984375 9.796875 -0.515625 C 8.898438 -0.0546875 7.851562 0.171875 6.65625 0.171875 Z M 6.65625 -2.71875 C 8.0625 -2.71875 8.765625 -3.648438 8.765625 -5.515625 C 8.765625 -6.460938 8.585938 -7.160156 8.234375 -7.609375 C 7.878906 -8.054688 7.351562 -8.28125 6.65625 -8.28125 C 5.9375 -8.28125 5.398438 -8.054688 5.046875 -7.609375 C 4.691406 -7.160156 4.515625 -6.460938 4.515625 -5.515625 C 4.515625 -4.554688 4.691406 -3.847656 5.046875 -3.390625 C 5.398438 -2.941406 5.9375 -2.71875 6.65625 -2.71875 Z M 6.65625 -2.71875 "/></g></g></g><g fill="#000000" fill-opacity="1"><g transform="translate(103.46053, 35.251196)"><g><path d="M 8.046875 -11.15625 C 8.578125 -11.15625 8.988281 -11.078125 9.28125 -10.921875 L 9.28125 -7.390625 C 8.65625 -7.671875 8.0625 -7.8125 7.5 -7.8125 C 5.863281 -7.8125 5.046875 -7.03125 5.046875 -5.46875 L 5.046875 0 L 1.15625 0 L 1.15625 -7.765625 C 1.15625 -8.941406 1.097656 -9.988281 0.984375 -10.90625 L 4.640625 -10.90625 L 4.875 -9.078125 C 5.132812 -9.753906 5.550781 -10.269531 6.125 -10.625 C 6.695312 -10.976562 7.335938 -11.15625 8.046875 -11.15625 Z M 8.046875 -11.15625 "/></g></g></g><g fill="#000000" fill-opacity="1"><g transform="translate(112.086076, 35.251196)"><g><path d="M 7.59375 -2.96875 C 7.851562 -2.96875 8.195312 -3.007812 8.625 -3.09375 L 8.625 -0.15625 C 8.101562 0.0625 7.429688 0.171875 6.609375 0.171875 C 5.140625 0.171875 4.019531 -0.238281 3.25 -1.0625 C 2.488281 -1.894531 2.109375 -3.050781 2.109375 -4.53125 L 2.109375 -8.046875 L 0.0625 -8.046875 L 0.0625 -10.90625 L 2.109375 -10.90625 L 2.109375 -13.375 L 5.984375 -14.625 L 5.984375 -10.90625 L 8.609375 -10.90625 L 8.609375 -8.046875 L 5.984375 -8.046875 L 5.984375 -4.53125 C 5.984375 -4.007812 6.132812 -3.617188 6.4375 -3.359375 C 6.75 -3.097656 7.132812 -2.96875 7.59375 -2.96875 Z M 7.59375 -2.96875 "/></g></g></g><g fill="#000000" fill-opacity="1"><g transform="translate(120.411215, 35.251196)"><g><path d="M 11.234375 -5.0625 L 4.375 -5.0625 C 4.445312 -4.21875 4.691406 -3.609375 5.109375 -3.234375 C 5.523438 -2.867188 6.132812 -2.6875 6.9375 -2.6875 C 7.476562 -2.6875 8.019531 -2.773438 8.5625 -2.953125 C 9.101562 -3.128906 9.597656 -3.375 10.046875 -3.6875 L 11.03125 -1.109375 C 10.488281 -0.710938 9.832031 -0.398438 9.0625 -0.171875 C 8.289062 0.0546875 7.515625 0.171875 6.734375 0.171875 C 5.492188 0.171875 4.414062 -0.0546875 3.5 -0.515625 C 2.582031 -0.972656 1.878906 -1.625 1.390625 -2.46875 C 0.910156 -3.320312 0.671875 -4.332031 0.671875 -5.5 C 0.671875 -6.601562 0.898438 -7.585938 1.359375 -8.453125 C 1.828125 -9.316406 2.472656 -9.988281 3.296875 -10.46875 C 4.117188 -10.957031 5.0625 -11.203125 6.125 -11.203125 C 7.15625 -11.203125 8.054688 -10.972656 8.828125 -10.515625 C 9.597656 -10.054688 10.191406 -9.398438 10.609375 -8.546875 C 11.023438 -7.703125 11.234375 -6.710938 11.234375 -5.578125 Z M 6.21875 -8.546875 C 5.257812 -8.546875 4.660156 -7.988281 4.421875 -6.875 L 7.90625 -6.875 C 7.757812 -7.988281 7.195312 -8.546875 6.21875 -8.546875 Z M 6.21875 -8.546875 "/></g></g></g><g fill="#000000" fill-opacity="1"><g transform="translate(131.676008, 35.251196)"><g/></g></g><g fill="#000000" fill-opacity="1"><g transform="translate(137.297527, 35.251196)"><g><path d="M 1.375 -15.28125 L 8.65625 -15.28125 C 10.394531 -15.28125 11.742188 -14.863281 12.703125 -14.03125 C 13.660156 -13.195312 14.140625 -12.0625 14.140625 -10.625 C 14.140625 -9.207031 13.65625 -8.078125 12.6875 -7.234375 C 11.71875 -6.390625 10.375 -5.96875 8.65625 -5.96875 L 5.40625 -5.96875 L 5.40625 0 L 1.375 0 Z M 8.109375 -8.96875 C 9.628906 -8.96875 10.390625 -9.503906 10.390625 -10.578125 C 10.390625 -11.128906 10.207031 -11.539062 9.84375 -11.8125 C 9.476562 -12.09375 8.898438 -12.234375 8.109375 -12.234375 L 5.40625 -12.234375 L 5.40625 -8.96875 Z M 8.109375 -8.96875 "/></g></g></g><g fill="#000000" fill-opacity="1"><g transform="translate(151.394687, 35.251196)"><g><path d="M 6.65625 0.171875 C 5.4375 0.171875 4.375 -0.0546875 3.46875 -0.515625 C 2.570312 -0.972656 1.878906 -1.628906 1.390625 -2.484375 C 0.910156 -3.347656 0.671875 -4.359375 0.671875 -5.515625 C 0.671875 -6.671875 0.910156 -7.675781 1.390625 -8.53125 C 1.878906 -9.394531 2.570312 -10.054688 3.46875 -10.515625 C 4.375 -10.972656 5.4375 -11.203125 6.65625 -11.203125 C 7.851562 -11.203125 8.898438 -10.96875 9.796875 -10.5 C 10.691406 -10.039062 11.382812 -9.382812 11.875 -8.53125 C 12.363281 -7.675781 12.609375 -6.671875 12.609375 -5.515625 C 12.609375 -4.359375 12.363281 -3.351562 11.875 -2.5 C 11.382812 -1.644531 10.691406 -0.984375 9.796875 -0.515625 C 8.898438 -0.0546875 7.851562 0.171875 6.65625 0.171875 Z M 6.65625 -2.71875 C 8.0625 -2.71875 8.765625 -3.648438 8.765625 -5.515625 C 8.765625 -6.460938 8.585938 -7.160156 8.234375 -7.609375 C 7.878906 -8.054688 7.351562 -8.28125 6.65625 -8.28125 C 5.9375 -8.28125 5.398438 -8.054688 5.046875 -7.609375 C 4.691406 -7.160156 4.515625 -6.460938 4.515625 -5.515625 C 4.515625 -4.554688 4.691406 -3.847656 5.046875 -3.390625 C 5.398438 -2.941406 5.9375 -2.71875 6.65625 -2.71875 Z M 6.65625 -2.71875 "/></g></g></g><g fill="#000000" fill-opacity="1"><g transform="translate(164.054206, 35.251196)"><g><path d="M 8.046875 -11.15625 C 8.578125 -11.15625 8.988281 -11.078125 9.28125 -10.921875 L 9.28125 -7.390625 C 8.65625 -7.671875 8.0625 -7.8125 7.5 -7.8125 C 5.863281 -7.8125 5.046875 -7.03125 5.046875 -5.46875 L 5.046875 0 L 1.15625 0 L 1.15625 -7.765625 C 1.15625 -8.941406 1.097656 -9.988281 0.984375 -10.90625 L 4.640625 -10.90625 L 4.875 -9.078125 C 5.132812 -9.753906 5.550781 -10.269531 6.125 -10.625 C 6.695312 -10.976562 7.335938 -11.15625 8.046875 -11.15625 Z M 8.046875 -11.15625 "/></g></g></g><g fill="#000000" fill-opacity="1"><g transform="translate(82.311519, 54.740794)"><g><path d="M 1.375 0 L 1.375 -15.28125 L 12.046875 -15.28125 L 12.046875 -12.125 L 5.34375 -12.125 L 5.34375 -9.34375 L 11.609375 -9.34375 L 11.609375 -6.203125 L 5.34375 -6.203125 L 5.34375 0 Z M 1.375 0 "/></g></g></g><g fill="#000000" fill-opacity="1"><g transform="translate(94.241491, 54.740794)"><g><path d="M 11.234375 -5.0625 L 4.375 -5.0625 C 4.445312 -4.21875 4.691406 -3.609375 5.109375 -3.234375 C 5.523438 -2.867188 6.132812 -2.6875 6.9375 -2.6875 C 7.476562 -2.6875 8.019531 -2.773438 8.5625 -2.953125 C 9.101562 -3.128906 9.597656 -3.375 10.046875 -3.6875 L 11.03125 -1.109375 C 10.488281 -0.710938 9.832031 -0.398438 9.0625 -0.171875 C 8.289062 0.0546875 7.515625 0.171875 6.734375 0.171875 C 5.492188 0.171875 4.414062 -0.0546875 3.5 -0.515625 C 2.582031 -0.972656 1.878906 -1.625 1.390625 -2.46875 C 0.910156 -3.320312 0.671875 -4.332031 0.671875 -5.5 C 0.671875 -6.601562 0.898438 -7.585938 1.359375 -8.453125 C 1.828125 -9.316406 2.472656 -9.988281 3.296875 -10.46875 C 4.117188 -10.957031 5.0625 -11.203125 6.125 -11.203125 C 7.15625 -11.203125 8.054688 -10.972656 8.828125 -10.515625 C 9.597656 -10.054688 10.191406 -9.398438 10.609375 -8.546875 C 11.023438 -7.703125 11.234375 -6.710938 11.234375 -5.578125 Z M 6.21875 -8.546875 C 5.257812 -8.546875 4.660156 -7.988281 4.421875 -6.875 L 7.90625 -6.875 C 7.757812 -7.988281 7.195312 -8.546875 6.21875 -8.546875 Z M 6.21875 -8.546875 "/></g></g></g><g fill="#000000" fill-opacity="1"><g transform="translate(105.506286, 54.740794)"><g><path d="M 6.5625 0.171875 C 4.71875 0.171875 3.273438 -0.328125 2.234375 -1.328125 C 1.191406 -2.328125 0.671875 -3.695312 0.671875 -5.4375 C 0.671875 -6.582031 0.921875 -7.585938 1.421875 -8.453125 C 1.929688 -9.328125 2.644531 -10.003906 3.5625 -10.484375 C 4.476562 -10.960938 5.535156 -11.203125 6.734375 -11.203125 C 7.535156 -11.203125 8.320312 -11.082031 9.09375 -10.84375 C 9.875 -10.613281 10.492188 -10.296875 10.953125 -9.890625 L 9.96875 -7.21875 C 9.570312 -7.53125 9.117188 -7.78125 8.609375 -7.96875 C 8.097656 -8.15625 7.601562 -8.25 7.125 -8.25 C 6.320312 -8.25 5.707031 -8.019531 5.28125 -7.5625 C 4.851562 -7.101562 4.640625 -6.421875 4.640625 -5.515625 C 4.640625 -4.597656 4.851562 -3.90625 5.28125 -3.4375 C 5.707031 -2.976562 6.332031 -2.75 7.15625 -2.75 C 7.625 -2.75 8.109375 -2.84375 8.609375 -3.03125 C 9.117188 -3.21875 9.570312 -3.46875 9.96875 -3.78125 L 10.953125 -1.140625 C 10.472656 -0.722656 9.84375 -0.398438 9.0625 -0.171875 C 8.289062 0.0546875 7.457031 0.171875 6.5625 0.171875 Z M 6.5625 0.171875 "/></g></g></g><g fill="#000000" fill-opacity="1"><g transform="translate(115.955701, 54.740794)"><g><path d="M 8.453125 -11.203125 C 9.742188 -11.203125 10.707031 -10.8125 11.34375 -10.03125 C 11.976562 -9.25 12.296875 -8.070312 12.296875 -6.5 L 12.296875 0 L 8.421875 0 L 8.421875 -6.328125 C 8.421875 -7.003906 8.304688 -7.488281 8.078125 -7.78125 C 7.847656 -8.070312 7.488281 -8.21875 7 -8.21875 C 6.414062 -8.21875 5.941406 -8.019531 5.578125 -7.625 C 5.222656 -7.238281 5.046875 -6.722656 5.046875 -6.078125 L 5.046875 0 L 1.15625 0 L 1.15625 -15.796875 L 5.046875 -15.796875 L 5.046875 -9.578125 C 5.890625 -10.660156 7.023438 -11.203125 8.453125 -11.203125 Z M 8.453125 -11.203125 "/></g></g></g><g fill="#000000" fill-opacity="1"><g transform="translate(128.743968, 54.740794)"><g><path d="M 12.640625 -10.90625 L 12.640625 0 L 8.828125 0 L 8.828125 -1.484375 C 8.503906 -0.960938 8.039062 -0.554688 7.4375 -0.265625 C 6.84375 0.0234375 6.1875 0.171875 5.46875 0.171875 C 4.539062 0.171875 3.710938 -0.0546875 2.984375 -0.515625 C 2.253906 -0.972656 1.6875 -1.625 1.28125 -2.46875 C 0.875 -3.320312 0.671875 -4.3125 0.671875 -5.4375 C 0.671875 -6.5625 0.875 -7.5625 1.28125 -8.4375 C 1.695312 -9.3125 2.269531 -9.988281 3 -10.46875 C 3.726562 -10.957031 4.550781 -11.203125 5.46875 -11.203125 C 6.1875 -11.203125 6.84375 -11.046875 7.4375 -10.734375 C 8.03125 -10.429688 8.492188 -10.023438 8.828125 -9.515625 L 8.828125 -10.90625 Z M 6.671875 -2.71875 C 7.359375 -2.71875 7.890625 -2.953125 8.265625 -3.421875 C 8.640625 -3.898438 8.828125 -4.582031 8.828125 -5.46875 C 8.828125 -6.375 8.640625 -7.066406 8.265625 -7.546875 C 7.890625 -8.023438 7.359375 -8.265625 6.671875 -8.265625 C 6.003906 -8.265625 5.476562 -8.015625 5.09375 -7.515625 C 4.707031 -7.023438 4.515625 -6.332031 4.515625 -5.4375 C 4.515625 -4.5625 4.695312 -3.890625 5.0625 -3.421875 C 5.4375 -2.953125 5.972656 -2.71875 6.671875 -2.71875 Z M 6.671875 -2.71875 "/></g></g></g></svg>