<svg xmlns="http://www.w3.org/2000/svg" xmlns:xlink="http://www.w3.org/1999/xlink" width="300" zoomAndPan="magnify" viewBox="0 0 224.87999 74.999997" height="100" preserveAspectRatio="xMidYMid meet" version="1.0"><defs><g/><clipPath id="a03b0c96b0"><path d="M 0 0.0195312 L 224.761719 0.0195312 L 224.761719 74.980469 L 0 74.980469 Z M 0 0.0195312 " clip-rule="nonzero"/></clipPath></defs><g clip-path="url(#a03b0c96b0)"><path fill="#ffffff" d="M 0 0.0195312 L 224.878906 0.0195312 L 224.878906 74.980469 L 0 74.980469 Z M 0 0.0195312 " fill-opacity="1" fill-rule="nonzero"/><path fill="#ffffff" d="M 0 0.0195312 L 224.878906 0.0195312 L 224.878906 74.980469 L 0 74.980469 Z M 0 0.0195312 " fill-opacity="1" fill-rule="nonzero"/></g><g fill="#000000" fill-opacity="1"><g transform="translate(59.589271, 35.251196)"><g><path d="M 1.375 -15.28125 L 7.625 -15.28125 C 9.3125 -15.28125 10.765625 -14.972656 11.984375 -14.359375 C 13.210938 -13.753906 14.148438 -12.878906 14.796875 -11.734375 C 15.453125 -10.597656 15.78125 -9.242188 15.78125 -7.671875 C 15.78125 -6.078125 15.457031 -4.703125 14.8125 -3.546875 C 14.164062 -2.398438 13.226562 -1.519531 12 -0.90625 C 10.78125 -0.300781 9.320312 0 7.625 0 L 1.375 0 Z M 7.34375 -3.21875 C 8.832031 -3.21875 9.941406 -3.585938 10.671875 -4.328125 C 11.410156 -5.066406 11.78125 -6.179688 11.78125 -7.671875 C 11.78125 -10.597656 10.300781 -12.0625 7.34375 -12.0625 L 5.40625 -12.0625 L 5.40625 -3.21875 Z M 7.34375 -3.21875 "/></g></g></g><g fill="#000000" fill-opacity="1"><g transform="translate(75.746335, 35.251196)"><g><path d="M 11.234375 -5.0625 L 4.375 -5.0625 C 4.445312 -4.21875 4.691406 -3.609375 5.109375 -3.234375 C 5.523438 -2.867188 6.132812 -2.6875 6.9375 -2.6875 C 7.476562 -2.6875 8.019531 -2.773438 8.5625 -2.953125 C 9.101562 -3.128906 9.597656 -3.375 10.046875 -3.6875 L 11.03125 -1.109375 C 10.488281 -0.710938 9.832031 -0.398438 9.0625 -0.171875 C 8.289062 0.0546875 7.515625 0.171875 6.734375 0.171875 C 5.492188 0.171875 4.414062 -0.0546875 3.5 -0.515625 C 2.582031 -0.972656 1.878906 -1.625 1.390625 -2.46875 C 0.910156 -3.320312 0.671875 -4.332031 0.671875 -5.5 C 0.671875 -6.601562 0.898438 -7.585938 1.359375 -8.453125 C 1.828125 -9.316406 2.472656 -9.988281 3.296875 -10.46875 C 4.117188 -10.957031 5.0625 -11.203125 6.125 -11.203125 C 7.15625 -11.203125 8.054688 -10.972656 8.828125 -10.515625 C 9.597656 -10.054688 10.191406 -9.398438 10.609375 -8.546875 C 11.023438 -7.703125 11.234375 -6.710938 11.234375 -5.578125 Z M 6.21875 -8.546875 C 5.257812 -8.546875 4.660156 -7.988281 4.421875 -6.875 L 7.90625 -6.875 C 7.757812 -7.988281 7.195312 -8.546875 6.21875 -8.546875 Z M 6.21875 -8.546875 "/></g></g></g><g fill="#000000" fill-opacity="1"><g transform="translate(87.011131, 35.251196)"><g><path d="M 5.5625 0.171875 C 3.382812 0.171875 1.664062 -0.265625 0.40625 -1.140625 L 1.390625 -3.78125 C 1.984375 -3.375 2.648438 -3.0625 3.390625 -2.84375 C 4.140625 -2.625 4.867188 -2.515625 5.578125 -2.515625 C 6.023438 -2.515625 6.367188 -2.578125 6.609375 -2.703125 C 6.859375 -2.828125 6.984375 -3.003906 6.984375 -3.234375 C 6.984375 -3.441406 6.890625 -3.601562 6.703125 -3.71875 C 6.523438 -3.84375 6.1875 -3.957031 5.6875 -4.0625 L 3.921875 -4.46875 C 2.804688 -4.695312 2 -5.054688 1.5 -5.546875 C 1.007812 -6.046875 0.765625 -6.726562 0.765625 -7.59375 C 0.765625 -8.300781 0.972656 -8.925781 1.390625 -9.46875 C 1.804688 -10.007812 2.382812 -10.429688 3.125 -10.734375 C 3.863281 -11.046875 4.710938 -11.203125 5.671875 -11.203125 C 6.453125 -11.203125 7.222656 -11.085938 7.984375 -10.859375 C 8.742188 -10.628906 9.453125 -10.304688 10.109375 -9.890625 L 9.078125 -7.328125 C 8.503906 -7.691406 7.914062 -7.972656 7.3125 -8.171875 C 6.71875 -8.378906 6.15625 -8.484375 5.625 -8.484375 C 5.195312 -8.484375 4.859375 -8.414062 4.609375 -8.28125 C 4.367188 -8.144531 4.25 -7.945312 4.25 -7.6875 C 4.25 -7.53125 4.320312 -7.40625 4.46875 -7.3125 C 4.613281 -7.21875 4.882812 -7.117188 5.28125 -7.015625 L 7.109375 -6.609375 C 8.265625 -6.335938 9.097656 -5.941406 9.609375 -5.421875 C 10.117188 -4.898438 10.375 -4.1875 10.375 -3.28125 C 10.375 -2.207031 9.945312 -1.363281 9.09375 -0.75 C 8.238281 -0.132812 7.0625 0.171875 5.5625 0.171875 Z M 5.5625 0.171875 "/></g></g></g><g fill="#000000" fill-opacity="1"><g transform="translate(97.288886, 35.251196)"><g><path d="M 6.5625 0.171875 C 4.71875 0.171875 3.273438 -0.328125 2.234375 -1.328125 C 1.191406 -2.328125 0.671875 -3.695312 0.671875 -5.4375 C 0.671875 -6.582031 0.921875 -7.585938 1.421875 -8.453125 C 1.929688 -9.328125 2.644531 -10.003906 3.5625 -10.484375 C 4.476562 -10.960938 5.535156 -11.203125 6.734375 -11.203125 C 7.535156 -11.203125 8.320312 -11.082031 9.09375 -10.84375 C 9.875 -10.613281 10.492188 -10.296875 10.953125 -9.890625 L 9.96875 -7.21875 C 9.570312 -7.53125 9.117188 -7.78125 8.609375 -7.96875 C 8.097656 -8.15625 7.601562 -8.25 7.125 -8.25 C 6.320312 -8.25 5.707031 -8.019531 5.28125 -7.5625 C 4.851562 -7.101562 4.640625 -6.421875 4.640625 -5.515625 C 4.640625 -4.597656 4.851562 -3.90625 5.28125 -3.4375 C 5.707031 -2.976562 6.332031 -2.75 7.15625 -2.75 C 7.625 -2.75 8.109375 -2.84375 8.609375 -3.03125 C 9.117188 -3.21875 9.570312 -3.46875 9.96875 -3.78125 L 10.953125 -1.140625 C 10.472656 -0.722656 9.84375 -0.398438 9.0625 -0.171875 C 8.289062 0.0546875 7.457031 0.171875 6.5625 0.171875 Z M 6.5625 0.171875 "/></g></g></g><g fill="#000000" fill-opacity="1"><g transform="translate(107.738302, 35.251196)"><g><path d="M 12.640625 -10.90625 L 12.640625 0 L 8.828125 0 L 8.828125 -1.484375 C 8.503906 -0.960938 8.039062 -0.554688 7.4375 -0.265625 C 6.84375 0.0234375 6.1875 0.171875 5.46875 0.171875 C 4.539062 0.171875 3.710938 -0.0546875 2.984375 -0.515625 C 2.253906 -0.972656 1.6875 -1.625 1.28125 -2.46875 C 0.875 -3.320312 0.671875 -4.3125 0.671875 -5.4375 C 0.671875 -6.5625 0.875 -7.5625 1.28125 -8.4375 C 1.695312 -9.3125 2.269531 -9.988281 3 -10.46875 C 3.726562 -10.957031 4.550781 -11.203125 5.46875 -11.203125 C 6.1875 -11.203125 6.84375 -11.046875 7.4375 -10.734375 C 8.03125 -10.429688 8.492188 -10.023438 8.828125 -9.515625 L 8.828125 -10.90625 Z M 6.671875 -2.71875 C 7.359375 -2.71875 7.890625 -2.953125 8.265625 -3.421875 C 8.640625 -3.898438 8.828125 -4.582031 8.828125 -5.46875 C 8.828125 -6.375 8.640625 -7.066406 8.265625 -7.546875 C 7.890625 -8.023438 7.359375 -8.265625 6.671875 -8.265625 C 6.003906 -8.265625 5.476562 -8.015625 5.09375 -7.515625 C 4.707031 -7.023438 4.515625 -6.332031 4.515625 -5.4375 C 4.515625 -4.5625 4.695312 -3.890625 5.0625 -3.421875 C 5.4375 -2.953125 5.972656 -2.71875 6.671875 -2.71875 Z M 6.671875 -2.71875 "/></g></g></g><g fill="#000000" fill-opacity="1"><g transform="translate(120.934251, 35.251196)"><g><path d="M 8.046875 -11.15625 C 8.578125 -11.15625 8.988281 -11.078125 9.28125 -10.921875 L 9.28125 -7.390625 C 8.65625 -7.671875 8.0625 -7.8125 7.5 -7.8125 C 5.863281 -7.8125 5.046875 -7.03125 5.046875 -5.46875 L 5.046875 0 L 1.15625 0 L 1.15625 -7.765625 C 1.15625 -8.941406 1.097656 -9.988281 0.984375 -10.90625 L 4.640625 -10.90625 L 4.875 -9.078125 C 5.132812 -9.753906 5.550781 -10.269531 6.125 -10.625 C 6.695312 -10.976562 7.335938 -11.15625 8.046875 -11.15625 Z M 8.046875 -11.15625 "/></g></g></g><g fill="#000000" fill-opacity="1"><g transform="translate(129.559798, 35.251196)"><g><path d="M 12.78125 -10.90625 L 12.78125 -0.6875 C 12.78125 1.101562 12.238281 2.46875 11.15625 3.40625 C 10.082031 4.34375 8.507812 4.8125 6.4375 4.8125 C 4.664062 4.8125 3.128906 4.492188 1.828125 3.859375 L 2.40625 1.03125 C 3.050781 1.3125 3.710938 1.535156 4.390625 1.703125 C 5.066406 1.867188 5.707031 1.953125 6.3125 1.953125 C 7.195312 1.953125 7.847656 1.757812 8.265625 1.375 C 8.691406 1 8.90625 0.410156 8.90625 -0.390625 L 8.90625 -2 C 8.550781 -1.519531 8.066406 -1.113281 7.453125 -0.78125 C 6.847656 -0.457031 6.203125 -0.296875 5.515625 -0.296875 C 4.585938 -0.296875 3.753906 -0.519531 3.015625 -0.96875 C 2.273438 -1.425781 1.695312 -2.066406 1.28125 -2.890625 C 0.875 -3.710938 0.671875 -4.664062 0.671875 -5.75 C 0.671875 -6.820312 0.875 -7.769531 1.28125 -8.59375 C 1.695312 -9.414062 2.273438 -10.054688 3.015625 -10.515625 C 3.753906 -10.972656 4.585938 -11.203125 5.515625 -11.203125 C 6.242188 -11.203125 6.910156 -11.050781 7.515625 -10.75 C 8.117188 -10.457031 8.582031 -10.050781 8.90625 -9.53125 L 8.90625 -10.90625 Z M 6.71875 -3.203125 C 7.40625 -3.203125 7.941406 -3.425781 8.328125 -3.875 C 8.710938 -4.320312 8.90625 -4.945312 8.90625 -5.75 C 8.90625 -6.519531 8.710938 -7.128906 8.328125 -7.578125 C 7.941406 -8.035156 7.40625 -8.265625 6.71875 -8.265625 C 6.03125 -8.265625 5.488281 -8.039062 5.09375 -7.59375 C 4.707031 -7.15625 4.515625 -6.539062 4.515625 -5.75 C 4.515625 -4.96875 4.710938 -4.347656 5.109375 -3.890625 C 5.503906 -3.429688 6.039062 -3.203125 6.71875 -3.203125 Z M 6.71875 -3.203125 "/></g></g></g><g fill="#000000" fill-opacity="1"><g transform="translate(142.841578, 35.251196)"><g><path d="M 12.640625 -10.90625 L 12.640625 0 L 8.828125 0 L 8.828125 -1.484375 C 8.503906 -0.960938 8.039062 -0.554688 7.4375 -0.265625 C 6.84375 0.0234375 6.1875 0.171875 5.46875 0.171875 C 4.539062 0.171875 3.710938 -0.0546875 2.984375 -0.515625 C 2.253906 -0.972656 1.6875 -1.625 1.28125 -2.46875 C 0.875 -3.320312 0.671875 -4.3125 0.671875 -5.4375 C 0.671875 -6.5625 0.875 -7.5625 1.28125 -8.4375 C 1.695312 -9.3125 2.269531 -9.988281 3 -10.46875 C 3.726562 -10.957031 4.550781 -11.203125 5.46875 -11.203125 C 6.1875 -11.203125 6.84375 -11.046875 7.4375 -10.734375 C 8.03125 -10.429688 8.492188 -10.023438 8.828125 -9.515625 L 8.828125 -10.90625 Z M 6.671875 -2.71875 C 7.359375 -2.71875 7.890625 -2.953125 8.265625 -3.421875 C 8.640625 -3.898438 8.828125 -4.582031 8.828125 -5.46875 C 8.828125 -6.375 8.640625 -7.066406 8.265625 -7.546875 C 7.890625 -8.023438 7.359375 -8.265625 6.671875 -8.265625 C 6.003906 -8.265625 5.476562 -8.015625 5.09375 -7.515625 C 4.707031 -7.023438 4.515625 -6.332031 4.515625 -5.4375 C 4.515625 -4.5625 4.695312 -3.890625 5.0625 -3.421875 C 5.4375 -2.953125 5.972656 -2.71875 6.671875 -2.71875 Z M 6.671875 -2.71875 "/></g></g></g><g fill="#000000" fill-opacity="1"><g transform="translate(156.037527, 35.251196)"><g><path d="M 8.046875 -11.15625 C 8.578125 -11.15625 8.988281 -11.078125 9.28125 -10.921875 L 9.28125 -7.390625 C 8.65625 -7.671875 8.0625 -7.8125 7.5 -7.8125 C 5.863281 -7.8125 5.046875 -7.03125 5.046875 -5.46875 L 5.046875 0 L 1.15625 0 L 1.15625 -7.765625 C 1.15625 -8.941406 1.097656 -9.988281 0.984375 -10.90625 L 4.640625 -10.90625 L 4.875 -9.078125 C 5.132812 -9.753906 5.550781 -10.269531 6.125 -10.625 C 6.695312 -10.976562 7.335938 -11.15625 8.046875 -11.15625 Z M 8.046875 -11.15625 "/></g></g></g><g fill="#000000" fill-opacity="1"><g transform="translate(164.673816, 35.251196)"><g/></g></g><g fill="#000000" fill-opacity="1"><g transform="translate(86.516306, 54.740794)"><g><path d="M 1.375 0 L 1.375 -15.28125 L 12.28125 -15.28125 L 12.28125 -12.1875 L 5.296875 -12.1875 L 5.296875 -9.3125 L 11.828125 -9.3125 L 11.828125 -6.21875 L 5.296875 -6.21875 L 5.296875 -3.09375 L 12.28125 -3.09375 L 12.28125 0 Z M 1.375 0 "/></g></g></g><g fill="#000000" fill-opacity="1"><g transform="translate(98.875421, 54.740794)"><g><path d="M 8.28125 -5.625 L 12.953125 0 L 8.390625 0 L 6.078125 -2.921875 L 3.75 0 L -0.765625 0 L 3.890625 -5.625 L -0.5 -10.90625 L 4.0625 -10.90625 L 6.078125 -8.28125 L 8.078125 -10.90625 L 12.671875 -10.90625 Z M 8.28125 -5.625 "/></g></g></g><g fill="#000000" fill-opacity="1"><g transform="translate(110.440613, 54.740794)"><g><path d="M 6.5625 0.171875 C 4.71875 0.171875 3.273438 -0.328125 2.234375 -1.328125 C 1.191406 -2.328125 0.671875 -3.695312 0.671875 -5.4375 C 0.671875 -6.582031 0.921875 -7.585938 1.421875 -8.453125 C 1.929688 -9.328125 2.644531 -10.003906 3.5625 -10.484375 C 4.476562 -10.960938 5.535156 -11.203125 6.734375 -11.203125 C 7.535156 -11.203125 8.320312 -11.082031 9.09375 -10.84375 C 9.875 -10.613281 10.492188 -10.296875 10.953125 -9.890625 L 9.96875 -7.21875 C 9.570312 -7.53125 9.117188 -7.78125 8.609375 -7.96875 C 8.097656 -8.15625 7.601562 -8.25 7.125 -8.25 C 6.320312 -8.25 5.707031 -8.019531 5.28125 -7.5625 C 4.851562 -7.101562 4.640625 -6.421875 4.640625 -5.515625 C 4.640625 -4.597656 4.851562 -3.90625 5.28125 -3.4375 C 5.707031 -2.976562 6.332031 -2.75 7.15625 -2.75 C 7.625 -2.75 8.109375 -2.84375 8.609375 -3.03125 C 9.117188 -3.21875 9.570312 -3.46875 9.96875 -3.78125 L 10.953125 -1.140625 C 10.472656 -0.722656 9.84375 -0.398438 9.0625 -0.171875 C 8.289062 0.0546875 7.457031 0.171875 6.5625 0.171875 Z M 6.5625 0.171875 "/></g></g></g><g fill="#000000" fill-opacity="1"><g transform="translate(120.890029, 54.740794)"><g><path d="M 11.234375 -5.0625 L 4.375 -5.0625 C 4.445312 -4.21875 4.691406 -3.609375 5.109375 -3.234375 C 5.523438 -2.867188 6.132812 -2.6875 6.9375 -2.6875 C 7.476562 -2.6875 8.019531 -2.773438 8.5625 -2.953125 C 9.101562 -3.128906 9.597656 -3.375 10.046875 -3.6875 L 11.03125 -1.109375 C 10.488281 -0.710938 9.832031 -0.398438 9.0625 -0.171875 C 8.289062 0.0546875 7.515625 0.171875 6.734375 0.171875 C 5.492188 0.171875 4.414062 -0.0546875 3.5 -0.515625 C 2.582031 -0.972656 1.878906 -1.625 1.390625 -2.46875 C 0.910156 -3.320312 0.671875 -4.332031 0.671875 -5.5 C 0.671875 -6.601562 0.898438 -7.585938 1.359375 -8.453125 C 1.828125 -9.316406 2.472656 -9.988281 3.296875 -10.46875 C 4.117188 -10.957031 5.0625 -11.203125 6.125 -11.203125 C 7.15625 -11.203125 8.054688 -10.972656 8.828125 -10.515625 C 9.597656 -10.054688 10.191406 -9.398438 10.609375 -8.546875 C 11.023438 -7.703125 11.234375 -6.710938 11.234375 -5.578125 Z M 6.21875 -8.546875 C 5.257812 -8.546875 4.660156 -7.988281 4.421875 -6.875 L 7.90625 -6.875 C 7.757812 -7.988281 7.195312 -8.546875 6.21875 -8.546875 Z M 6.21875 -8.546875 "/></g></g></g><g fill="#000000" fill-opacity="1"><g transform="translate(132.154825, 54.740794)"><g><path d="M 1.15625 0 L 1.15625 -15.796875 L 5.046875 -15.796875 L 5.046875 0 Z M 1.15625 0 "/></g></g></g></svg>