<svg xmlns="http://www.w3.org/2000/svg" xmlns:xlink="http://www.w3.org/1999/xlink" width="300" zoomAndPan="magnify" viewBox="0 0 224.87999 74.999997" height="100" preserveAspectRatio="xMidYMid meet" version="1.0"><defs><g/><clipPath id="97ecb83d9e"><path d="M 0 0.0195312 L 224.761719 0.0195312 L 224.761719 74.980469 L 0 74.980469 Z M 0 0.0195312 " clip-rule="nonzero"/></clipPath><clipPath id="23a9856ead"><path d="M 0 38.566406 L 37 38.566406 L 37 74.980469 L 0 74.980469 Z M 0 38.566406 " clip-rule="nonzero"/></clipPath><clipPath id="b331100dc7"><path d="M 0 36.664062 L 31.167969 36.664062 L 31.167969 74.980469 L 0 74.980469 Z M 0 36.664062 " clip-rule="nonzero"/></clipPath><clipPath id="491e9f17fe"><path d="M 189 0.0195312 L 224.761719 0.0195312 L 224.761719 36 L 189 36 Z M 189 0.0195312 " clip-rule="nonzero"/></clipPath><clipPath id="3fd00001e1"><path d="M 193.105469 0.0195312 L 224.761719 0.0195312 L 224.761719 40.234375 L 193.105469 40.234375 Z M 193.105469 0.0195312 " clip-rule="nonzero"/></clipPath><clipPath id="c2f4311c34"><path d="M 127 41 L 132 41 L 132 44.742188 L 127 44.742188 Z M 127 41 " clip-rule="nonzero"/></clipPath><clipPath id="5bfb139deb"><path d="M 128 41 L 132.402344 41 L 132.402344 42 L 128 42 Z M 128 41 " clip-rule="nonzero"/></clipPath><clipPath id="2c4287a125"><path d="M 89 41 L 93 41 L 93 44.742188 L 89 44.742188 Z M 89 41 " clip-rule="nonzero"/></clipPath><clipPath id="70bc1f110f"><path d="M 88.175781 41 L 92 41 L 92 42 L 88.175781 42 Z M 88.175781 41 " clip-rule="nonzero"/></clipPath></defs><g clip-path="url(#97ecb83d9e)"><path fill="#ffffff" d="M 0 0.0195312 L 224.878906 0.0195312 L 224.878906 74.980469 L 0 74.980469 Z M 0 0.0195312 " fill-opacity="1" fill-rule="nonzero"/><path fill="#fad02c" d="M 0 0.0195312 L 224.878906 0.0195312 L 224.878906 74.980469 L 0 74.980469 Z M 0 0.0195312 " fill-opacity="1" fill-rule="nonzero"/></g><g clip-path="url(#23a9856ead)"><path fill="#ffcc00" d="M -5.265625 45.382812 C -3.625 42.261719 0.175781 42.078125 3.363281 42.371094 C 6.925781 42.699219 8.761719 41.75 11.765625 40.003906 C 14.203125 38.589844 16.460938 38.632812 19.046875 39.957031 C 22.167969 41.566406 21.53125 44.441406 24.058594 46.269531 C 26.40625 47.96875 29.949219 47.210938 32.445312 48.78125 C 34.945312 50.359375 35.621094 53.09375 35.484375 55.914062 C 35.292969 59.757812 33.3125 63.359375 34.015625 67.257812 C 34.582031 70.398438 37.859375 73.625 36.226562 76.9375 C 33.164062 83.140625 23.613281 77.945312 18.699219 78.847656 C 13.382812 79.832031 5.328125 85.726562 0.210938 80.492188 C -2.050781 78.179688 -0.828125 74.5 -0.875 71.679688 C -0.9375 67.75 -2.28125 66.5625 -5.019531 64.007812 C -7.660156 61.550781 -9.75 60.324219 -8.710938 56.609375 C -8.089844 54.378906 -5.058594 53.886719 -4.492188 52.417969 C -3.804688 50.582031 -6.207031 47.15625 -5.265625 45.382812 Z M -5.265625 45.382812 " fill-opacity="1" fill-rule="nonzero"/></g><g clip-path="url(#b331100dc7)"><path fill="#58595b" d="M 4.34375 36.964844 C 3.351562 37.121094 2.382812 37.449219 1.507812 37.941406 C -0.25 38.917969 -1.640625 40.511719 -2.414062 42.367188 C -3.183594 44.21875 -3.339844 46.308594 -2.890625 48.265625 C -2.441406 50.21875 -1.402344 52.023438 0.03125 53.421875 C 1.085938 54.453125 2.324219 55.246094 3.445312 56.15625 C 4.566406 57.066406 5.597656 58.136719 6.089844 59.457031 C 6.648438 60.96875 6.441406 62.703125 5.796875 64.199219 C 5.148438 65.699219 4.09375 67 2.957031 68.199219 C 1.816406 69.402344 0.582031 70.527344 -0.492188 71.8125 C -1.570312 73.097656 -2.496094 74.566406 -2.878906 76.21875 C -3.222656 77.714844 -3.097656 79.304688 -2.578125 80.746094 C -2.058594 82.1875 -1.160156 83.476562 -0.0273438 84.5 C 2.234375 86.554688 5.34375 87.496094 8.382812 87.515625 C 11.878906 87.539062 15.375 86.382812 18.152344 84.257812 C 19.441406 83.273438 20.5625 82.101562 21.746094 81.023438 C 23.644531 79.300781 25.75 77.777344 27.542969 75.902344 C 29.339844 74.027344 30.839844 71.710938 31.113281 69.101562 C 31.402344 66.390625 30.347656 63.746094 29.152344 61.34375 C 27.957031 58.941406 26.582031 56.59375 26.09375 54 C 25.707031 51.941406 25.898438 49.800781 25.765625 47.664062 C 25.699219 46.597656 25.546875 45.523438 25.207031 44.5 C 24.863281 43.472656 24.324219 42.496094 23.542969 41.734375 C 22.828125 41.035156 21.9375 40.539062 21.003906 40.207031 C 20.074219 39.871094 19.097656 39.695312 18.125 39.582031 C 16.179688 39.351562 14.210938 39.359375 12.367188 38.828125 C 10.683594 38.34375 9.109375 37.40625 7.339844 37.035156 C 6.355469 36.824219 5.335938 36.808594 4.34375 36.964844 Z M 4.390625 37.265625 C 5.347656 37.117188 6.328125 37.132812 7.273438 37.332031 C 8.980469 37.691406 10.546875 38.625 12.285156 39.121094 C 14.183594 39.667969 16.167969 39.65625 18.089844 39.882812 C 19.046875 39.996094 20 40.171875 20.902344 40.492188 C 21.804688 40.816406 22.652344 41.289062 23.328125 41.953125 C 24.066406 42.671875 24.585938 43.605469 24.917969 44.59375 C 25.246094 45.585938 25.394531 46.632812 25.460938 47.683594 C 25.589844 49.789062 25.398438 51.941406 25.796875 54.058594 C 26.296875 56.722656 27.691406 59.089844 28.878906 61.480469 C 30.066406 63.867188 31.089844 66.457031 30.8125 69.066406 C 30.546875 71.582031 29.089844 73.847656 27.324219 75.691406 C 25.554688 77.539062 23.457031 79.058594 21.542969 80.796875 C 20.347656 81.882812 19.234375 83.050781 17.96875 84.015625 C 15.246094 86.097656 11.8125 87.234375 8.382812 87.210938 C 5.40625 87.191406 2.371094 86.265625 0.175781 84.277344 C -0.917969 83.28125 -1.792969 82.03125 -2.289062 80.640625 C -2.789062 79.253906 -2.910156 77.722656 -2.582031 76.285156 C -2.214844 74.703125 -1.316406 73.269531 -0.257812 72.007812 C 0.800781 70.746094 2.027344 69.625 3.175781 68.410156 C 4.324219 67.199219 5.40625 65.875 6.074219 64.324219 C 6.746094 62.769531 6.96875 60.957031 6.375 59.351562 C 5.855469 57.949219 4.777344 56.84375 3.636719 55.921875 C 2.5 54.996094 1.269531 54.203125 0.246094 53.203125 C -1.148438 51.84375 -2.160156 50.089844 -2.59375 48.195312 C -3.027344 46.304688 -2.875 44.273438 -2.128906 42.484375 C -1.386719 40.691406 -0.0390625 39.148438 1.65625 38.207031 C 2.5 37.734375 3.433594 37.417969 4.390625 37.265625 Z M 4.390625 37.265625 " fill-opacity="1" fill-rule="nonzero"/></g><g fill="#000000" fill-opacity="1"><g transform="translate(31.357592, 59.20404)"><g><path d="M 9.453125 0.21875 C 7.753906 0.21875 6.269531 -0.128906 5 -0.828125 C 3.726562 -1.523438 2.753906 -2.519531 2.078125 -3.8125 C 1.398438 -5.113281 1.0625 -6.632812 1.0625 -8.375 C 1.0625 -10.113281 1.40625 -11.625 2.09375 -12.90625 C 2.78125 -14.1875 3.753906 -15.175781 5.015625 -15.875 C 6.273438 -16.570312 7.753906 -16.921875 9.453125 -16.921875 C 11.160156 -16.921875 12.644531 -16.570312 13.90625 -15.875 C 15.164062 -15.175781 16.128906 -14.1875 16.796875 -12.90625 C 17.472656 -11.625 17.8125 -10.113281 17.8125 -8.375 C 17.8125 -6.632812 17.472656 -5.113281 16.796875 -3.8125 C 16.128906 -2.519531 15.164062 -1.523438 13.90625 -0.828125 C 12.644531 -0.128906 11.160156 0.21875 9.453125 0.21875 Z M 9.453125 -3.140625 C 10.703125 -3.140625 11.679688 -3.582031 12.390625 -4.46875 C 13.109375 -5.363281 13.46875 -6.664062 13.46875 -8.375 C 13.46875 -10.0625 13.109375 -11.347656 12.390625 -12.234375 C 11.679688 -13.117188 10.703125 -13.5625 9.453125 -13.5625 C 8.203125 -13.5625 7.222656 -13.125 6.515625 -12.25 C 5.816406 -11.375 5.46875 -10.082031 5.46875 -8.375 C 5.46875 -6.65625 5.816406 -5.351562 6.515625 -4.46875 C 7.222656 -3.582031 8.203125 -3.140625 9.453125 -3.140625 Z M 9.453125 -3.140625 "/></g></g></g><g fill="#000000" fill-opacity="1"><g transform="translate(49.585992, 59.20404)"><g><path d="M 9.125 -12.25 C 10.15625 -12.25 11.070312 -11.992188 11.875 -11.484375 C 12.675781 -10.972656 13.296875 -10.25 13.734375 -9.3125 C 14.179688 -8.375 14.40625 -7.296875 14.40625 -6.078125 C 14.40625 -4.835938 14.175781 -3.742188 13.71875 -2.796875 C 13.269531 -1.859375 12.644531 -1.125 11.84375 -0.59375 C 11.050781 -0.0703125 10.144531 0.1875 9.125 0.1875 C 8.332031 0.1875 7.609375 0.0234375 6.953125 -0.296875 C 6.296875 -0.617188 5.800781 -1.0625 5.46875 -1.625 L 5.46875 0 L 1.265625 0 L 1.265625 -17.265625 L 5.515625 -17.265625 L 5.515625 -10.484375 C 5.859375 -11.015625 6.347656 -11.441406 6.984375 -11.765625 C 7.628906 -12.085938 8.34375 -12.25 9.125 -12.25 Z M 7.84375 -2.984375 C 8.59375 -2.984375 9.164062 -3.25 9.5625 -3.78125 C 9.957031 -4.3125 10.15625 -5.078125 10.15625 -6.078125 C 10.15625 -7.035156 9.957031 -7.765625 9.5625 -8.265625 C 9.175781 -8.773438 8.601562 -9.03125 7.84375 -9.03125 C 7.070312 -9.03125 6.484375 -8.769531 6.078125 -8.25 C 5.671875 -7.738281 5.46875 -7 5.46875 -6.03125 C 5.46875 -5.03125 5.671875 -4.269531 6.078125 -3.75 C 6.484375 -3.238281 7.070312 -2.984375 7.84375 -2.984375 Z M 7.84375 -2.984375 "/></g></g></g><g fill="#000000" fill-opacity="1"><g transform="translate(64.060753, 59.20404)"><g><path d="M 6.078125 0.1875 C 3.703125 0.1875 1.828125 -0.289062 0.453125 -1.25 L 1.53125 -4.125 C 2.164062 -3.6875 2.890625 -3.347656 3.703125 -3.109375 C 4.515625 -2.867188 5.316406 -2.75 6.109375 -2.75 C 6.585938 -2.75 6.957031 -2.816406 7.21875 -2.953125 C 7.488281 -3.097656 7.625 -3.296875 7.625 -3.546875 C 7.625 -3.765625 7.523438 -3.9375 7.328125 -4.0625 C 7.140625 -4.195312 6.769531 -4.320312 6.21875 -4.4375 L 4.296875 -4.875 C 3.078125 -5.125 2.195312 -5.519531 1.65625 -6.0625 C 1.113281 -6.601562 0.84375 -7.351562 0.84375 -8.3125 C 0.84375 -9.070312 1.066406 -9.75 1.515625 -10.34375 C 1.972656 -10.9375 2.601562 -11.398438 3.40625 -11.734375 C 4.21875 -12.078125 5.148438 -12.25 6.203125 -12.25 C 7.054688 -12.25 7.894531 -12.125 8.71875 -11.875 C 9.550781 -11.625 10.328125 -11.269531 11.046875 -10.8125 L 9.921875 -8 C 9.296875 -8.40625 8.65625 -8.71875 8 -8.9375 C 7.34375 -9.15625 6.726562 -9.265625 6.15625 -9.265625 C 5.675781 -9.265625 5.300781 -9.191406 5.03125 -9.046875 C 4.769531 -8.898438 4.640625 -8.6875 4.640625 -8.40625 C 4.640625 -8.226562 4.71875 -8.085938 4.875 -7.984375 C 5.03125 -7.890625 5.328125 -7.785156 5.765625 -7.671875 L 7.765625 -7.234375 C 9.035156 -6.929688 9.945312 -6.492188 10.5 -5.921875 C 11.050781 -5.347656 11.328125 -4.570312 11.328125 -3.59375 C 11.328125 -2.414062 10.863281 -1.488281 9.9375 -0.8125 C 9.007812 -0.144531 7.722656 0.1875 6.078125 0.1875 Z M 6.078125 0.1875 "/></g></g></g><g fill="#000000" fill-opacity="1"><g transform="translate(75.298015, 59.20404)"><g><path d="M 12.28125 -5.53125 L 4.78125 -5.53125 C 4.863281 -4.613281 5.128906 -3.953125 5.578125 -3.546875 C 6.035156 -3.140625 6.703125 -2.9375 7.578125 -2.9375 C 8.171875 -2.9375 8.765625 -3.03125 9.359375 -3.21875 C 9.953125 -3.414062 10.492188 -3.6875 10.984375 -4.03125 L 12.0625 -1.21875 C 11.46875 -0.78125 10.75 -0.4375 9.90625 -0.1875 C 9.0625 0.0625 8.21875 0.1875 7.375 0.1875 C 6.007812 0.1875 4.828125 -0.0625 3.828125 -0.5625 C 2.828125 -1.0625 2.0625 -1.773438 1.53125 -2.703125 C 1 -3.640625 0.734375 -4.742188 0.734375 -6.015625 C 0.734375 -7.210938 0.984375 -8.285156 1.484375 -9.234375 C 1.992188 -10.179688 2.695312 -10.921875 3.59375 -11.453125 C 4.5 -11.984375 5.53125 -12.25 6.6875 -12.25 C 7.8125 -12.25 8.796875 -12 9.640625 -11.5 C 10.484375 -11 11.132812 -10.28125 11.59375 -9.34375 C 12.050781 -8.414062 12.28125 -7.335938 12.28125 -6.109375 Z M 6.8125 -9.34375 C 5.757812 -9.34375 5.097656 -8.734375 4.828125 -7.515625 L 8.640625 -7.515625 C 8.484375 -8.734375 7.875 -9.34375 6.8125 -9.34375 Z M 6.8125 -9.34375 "/></g></g></g><g fill="#000000" fill-opacity="1"><g transform="translate(87.61444, 59.20404)"><g><path d="M 8.796875 -12.203125 C 9.378906 -12.203125 9.828125 -12.117188 10.140625 -11.953125 L 10.140625 -8.078125 C 9.460938 -8.390625 8.8125 -8.546875 8.1875 -8.546875 C 6.40625 -8.546875 5.515625 -7.691406 5.515625 -5.984375 L 5.515625 0 L 1.265625 0 L 1.265625 -8.5 C 1.265625 -9.78125 1.203125 -10.921875 1.078125 -11.921875 L 5.0625 -11.921875 L 5.328125 -9.921875 C 5.609375 -10.660156 6.0625 -11.222656 6.6875 -11.609375 C 7.3125 -12.003906 8.015625 -12.203125 8.796875 -12.203125 Z M 8.796875 -12.203125 "/></g></g></g><g fill="#000000" fill-opacity="1"><g transform="translate(97.045266, 59.20404)"><g><path d="M 9.40625 -11.90625 L 13.59375 -11.90625 L 8.28125 0 L 4.78125 0 L -0.453125 -11.90625 L 3.96875 -11.90625 L 6.640625 -5.046875 Z M 9.40625 -11.90625 "/></g></g></g><g fill="#000000" fill-opacity="1"><g transform="translate(109.502459, 59.20404)"><g><path d="M 13.828125 -11.921875 L 13.828125 0 L 9.640625 0 L 9.640625 -1.625 C 9.296875 -1.0625 8.796875 -0.617188 8.140625 -0.296875 C 7.484375 0.0234375 6.765625 0.1875 5.984375 0.1875 C 4.960938 0.1875 4.050781 -0.0625 3.25 -0.5625 C 2.457031 -1.0625 1.835938 -1.773438 1.390625 -2.703125 C 0.953125 -3.640625 0.734375 -4.71875 0.734375 -5.9375 C 0.734375 -7.175781 0.957031 -8.269531 1.40625 -9.21875 C 1.863281 -10.175781 2.488281 -10.921875 3.28125 -11.453125 C 4.082031 -11.984375 4.984375 -12.25 5.984375 -12.25 C 6.765625 -12.25 7.476562 -12.078125 8.125 -11.734375 C 8.78125 -11.398438 9.285156 -10.953125 9.640625 -10.390625 L 9.640625 -11.921875 Z M 7.296875 -2.984375 C 8.046875 -2.984375 8.625 -3.238281 9.03125 -3.75 C 9.4375 -4.269531 9.640625 -5.015625 9.640625 -5.984375 C 9.640625 -6.972656 9.4375 -7.726562 9.03125 -8.25 C 8.625 -8.769531 8.046875 -9.03125 7.296875 -9.03125 C 6.566406 -9.03125 5.988281 -8.757812 5.5625 -8.21875 C 5.132812 -7.6875 4.921875 -6.925781 4.921875 -5.9375 C 4.921875 -4.976562 5.125 -4.242188 5.53125 -3.734375 C 5.945312 -3.234375 6.535156 -2.984375 7.296875 -2.984375 Z M 7.296875 -2.984375 "/></g></g></g><g fill="#000000" fill-opacity="1"><g transform="translate(123.930302, 59.20404)"><g><path d="M 7.1875 0.1875 C 5.164062 0.1875 3.582031 -0.359375 2.4375 -1.453125 C 1.300781 -2.546875 0.734375 -4.039062 0.734375 -5.9375 C 0.734375 -7.1875 1.007812 -8.285156 1.5625 -9.234375 C 2.113281 -10.191406 2.890625 -10.929688 3.890625 -11.453125 C 4.890625 -11.984375 6.050781 -12.25 7.375 -12.25 C 8.25 -12.25 9.109375 -12.117188 9.953125 -11.859375 C 10.796875 -11.597656 11.46875 -11.25 11.96875 -10.8125 L 10.890625 -7.890625 C 10.460938 -8.234375 9.96875 -8.503906 9.40625 -8.703125 C 8.84375 -8.910156 8.304688 -9.015625 7.796875 -9.015625 C 6.921875 -9.015625 6.242188 -8.765625 5.765625 -8.265625 C 5.296875 -7.765625 5.0625 -7.019531 5.0625 -6.03125 C 5.0625 -5.03125 5.296875 -4.273438 5.765625 -3.765625 C 6.242188 -3.253906 6.925781 -3 7.8125 -3 C 8.332031 -3 8.867188 -3.097656 9.421875 -3.296875 C 9.972656 -3.503906 10.460938 -3.78125 10.890625 -4.125 L 11.96875 -1.25 C 11.445312 -0.789062 10.757812 -0.4375 9.90625 -0.1875 C 9.0625 0.0625 8.15625 0.1875 7.1875 0.1875 Z M 7.1875 0.1875 "/></g></g></g><g fill="#000000" fill-opacity="1"><g transform="translate(135.355238, 59.20404)"><g><path d="M 1.265625 0 L 1.265625 -11.921875 L 5.515625 -11.921875 L 5.515625 0 Z M 1.15625 -17.765625 L 5.59375 -17.765625 L 5.59375 -13.953125 L 1.15625 -13.953125 Z M 1.15625 -17.765625 "/></g></g></g><g fill="#000000" fill-opacity="1"><g transform="translate(141.478176, 59.20404)"><g><path d="M 7.28125 0.1875 C 5.945312 0.1875 4.785156 -0.0625 3.796875 -0.5625 C 2.816406 -1.0625 2.0625 -1.78125 1.53125 -2.71875 C 1 -3.65625 0.734375 -4.757812 0.734375 -6.03125 C 0.734375 -7.300781 1 -8.40625 1.53125 -9.34375 C 2.0625 -10.28125 2.816406 -11 3.796875 -11.5 C 4.785156 -12 5.945312 -12.25 7.28125 -12.25 C 8.59375 -12.25 9.738281 -11.992188 10.71875 -11.484375 C 11.695312 -10.972656 12.453125 -10.253906 12.984375 -9.328125 C 13.515625 -8.398438 13.78125 -7.300781 13.78125 -6.03125 C 13.78125 -4.757812 13.515625 -3.660156 12.984375 -2.734375 C 12.453125 -1.804688 11.695312 -1.085938 10.71875 -0.578125 C 9.738281 -0.0664062 8.59375 0.1875 7.28125 0.1875 Z M 7.28125 -2.984375 C 8.8125 -2.984375 9.578125 -4 9.578125 -6.03125 C 9.578125 -7.0625 9.382812 -7.820312 9 -8.3125 C 8.613281 -8.8125 8.039062 -9.0625 7.28125 -9.0625 C 6.5 -9.0625 5.910156 -8.8125 5.515625 -8.3125 C 5.117188 -7.820312 4.921875 -7.0625 4.921875 -6.03125 C 4.921875 -4.976562 5.117188 -4.207031 5.515625 -3.71875 C 5.910156 -3.226562 6.5 -2.984375 7.28125 -2.984375 Z M 7.28125 -2.984375 "/></g></g></g><g fill="#000000" fill-opacity="1"><g transform="translate(155.319513, 59.20404)"><g><path d="M 9.25 -12.25 C 10.65625 -12.25 11.707031 -11.820312 12.40625 -10.96875 C 13.101562 -10.113281 13.453125 -8.828125 13.453125 -7.109375 L 13.453125 0 L 9.203125 0 L 9.203125 -6.921875 C 9.203125 -7.660156 9.078125 -8.1875 8.828125 -8.5 C 8.578125 -8.820312 8.1875 -8.984375 7.65625 -8.984375 C 7.007812 -8.984375 6.488281 -8.769531 6.09375 -8.34375 C 5.707031 -7.914062 5.515625 -7.347656 5.515625 -6.640625 L 5.515625 0 L 1.265625 0 L 1.265625 -8.5 C 1.265625 -9.78125 1.203125 -10.921875 1.078125 -11.921875 L 5.0625 -11.921875 L 5.28125 -10.15625 C 5.738281 -10.832031 6.300781 -11.347656 6.96875 -11.703125 C 7.644531 -12.066406 8.40625 -12.25 9.25 -12.25 Z M 9.25 -12.25 "/></g></g></g><g fill="#000000" fill-opacity="1"><g transform="translate(169.301618, 59.20404)"><g><path d="M 12.28125 -5.53125 L 4.78125 -5.53125 C 4.863281 -4.613281 5.128906 -3.953125 5.578125 -3.546875 C 6.035156 -3.140625 6.703125 -2.9375 7.578125 -2.9375 C 8.171875 -2.9375 8.765625 -3.03125 9.359375 -3.21875 C 9.953125 -3.414062 10.492188 -3.6875 10.984375 -4.03125 L 12.0625 -1.21875 C 11.46875 -0.78125 10.75 -0.4375 9.90625 -0.1875 C 9.0625 0.0625 8.21875 0.1875 7.375 0.1875 C 6.007812 0.1875 4.828125 -0.0625 3.828125 -0.5625 C 2.828125 -1.0625 2.0625 -1.773438 1.53125 -2.703125 C 1 -3.640625 0.734375 -4.742188 0.734375 -6.015625 C 0.734375 -7.210938 0.984375 -8.285156 1.484375 -9.234375 C 1.992188 -10.179688 2.695312 -10.921875 3.59375 -11.453125 C 4.5 -11.984375 5.53125 -12.25 6.6875 -12.25 C 7.8125 -12.25 8.796875 -12 9.640625 -11.5 C 10.484375 -11 11.132812 -10.28125 11.59375 -9.34375 C 12.050781 -8.414062 12.28125 -7.335938 12.28125 -6.109375 Z M 6.8125 -9.34375 C 5.757812 -9.34375 5.097656 -8.734375 4.828125 -7.515625 L 8.640625 -7.515625 C 8.484375 -8.734375 7.875 -9.34375 6.8125 -9.34375 Z M 6.8125 -9.34375 "/></g></g></g><g fill="#000000" fill-opacity="1"><g transform="translate(181.618042, 59.20404)"><g><path d="M 6.078125 0.1875 C 3.703125 0.1875 1.828125 -0.289062 0.453125 -1.25 L 1.53125 -4.125 C 2.164062 -3.6875 2.890625 -3.347656 3.703125 -3.109375 C 4.515625 -2.867188 5.316406 -2.75 6.109375 -2.75 C 6.585938 -2.75 6.957031 -2.816406 7.21875 -2.953125 C 7.488281 -3.097656 7.625 -3.296875 7.625 -3.546875 C 7.625 -3.765625 7.523438 -3.9375 7.328125 -4.0625 C 7.140625 -4.195312 6.769531 -4.320312 6.21875 -4.4375 L 4.296875 -4.875 C 3.078125 -5.125 2.195312 -5.519531 1.65625 -6.0625 C 1.113281 -6.601562 0.84375 -7.351562 0.84375 -8.3125 C 0.84375 -9.070312 1.066406 -9.75 1.515625 -10.34375 C 1.972656 -10.9375 2.601562 -11.398438 3.40625 -11.734375 C 4.21875 -12.078125 5.148438 -12.25 6.203125 -12.25 C 7.054688 -12.25 7.894531 -12.125 8.71875 -11.875 C 9.550781 -11.625 10.328125 -11.269531 11.046875 -10.8125 L 9.921875 -8 C 9.296875 -8.40625 8.65625 -8.71875 8 -8.9375 C 7.34375 -9.15625 6.726562 -9.265625 6.15625 -9.265625 C 5.675781 -9.265625 5.300781 -9.191406 5.03125 -9.046875 C 4.769531 -8.898438 4.640625 -8.6875 4.640625 -8.40625 C 4.640625 -8.226562 4.71875 -8.085938 4.875 -7.984375 C 5.03125 -7.890625 5.328125 -7.785156 5.765625 -7.671875 L 7.765625 -7.234375 C 9.035156 -6.929688 9.945312 -6.492188 10.5 -5.921875 C 11.050781 -5.347656 11.328125 -4.570312 11.328125 -3.59375 C 11.328125 -2.414062 10.863281 -1.488281 9.9375 -0.8125 C 9.007812 -0.144531 7.722656 0.1875 6.078125 0.1875 Z M 6.078125 0.1875 "/></g></g></g><g clip-path="url(#491e9f17fe)"><path fill="#ffcc00" d="M 193.386719 -2.167969 C 195.046875 -5.320312 198.878906 -5.503906 202.09375 -5.210938 C 205.691406 -4.878906 207.542969 -5.835938 210.574219 -7.597656 C 213.035156 -9.027344 215.3125 -8.980469 217.921875 -7.644531 C 221.070312 -6.019531 220.425781 -3.117188 222.980469 -1.273438 C 225.347656 0.441406 228.925781 -0.324219 231.441406 1.261719 C 233.964844 2.855469 234.648438 5.609375 234.507812 8.457031 C 234.316406 12.339844 232.316406 15.96875 233.027344 19.90625 C 233.597656 23.074219 236.90625 26.328125 235.257812 29.675781 C 232.167969 35.933594 222.527344 30.6875 217.570312 31.601562 C 212.207031 32.59375 204.078125 38.539062 198.917969 33.257812 C 196.628906 30.925781 197.867188 27.214844 197.820312 24.367188 C 197.753906 20.402344 196.398438 19.203125 193.636719 16.625 C 190.972656 14.144531 188.859375 12.910156 189.910156 9.160156 C 190.539062 6.910156 193.597656 6.410156 194.167969 4.929688 C 194.859375 3.074219 192.4375 -0.378906 193.386719 -2.167969 Z M 193.386719 -2.167969 " fill-opacity="1" fill-rule="nonzero"/></g><g clip-path="url(#3fd00001e1)"><path fill="#58595b" d="M 200.761719 -10.4375 C 199.769531 -10.28125 198.804688 -9.949219 197.925781 -9.460938 C 196.167969 -8.484375 194.777344 -6.886719 194.007812 -5.035156 C 193.234375 -3.183594 193.082031 -1.089844 193.527344 0.863281 C 193.976562 2.816406 195.015625 4.621094 196.449219 6.019531 C 197.503906 7.050781 198.742188 7.847656 199.863281 8.757812 C 200.984375 9.664062 202.015625 10.734375 202.507812 12.058594 C 203.066406 13.570312 202.859375 15.304688 202.214844 16.800781 C 201.566406 18.300781 200.511719 19.597656 199.375 20.800781 C 198.234375 22 197 23.128906 195.925781 24.410156 C 194.847656 25.695312 193.921875 27.164062 193.539062 28.816406 C 193.195312 30.3125 193.324219 31.902344 193.839844 33.34375 C 194.359375 34.785156 195.257812 36.074219 196.390625 37.101562 C 198.652344 39.152344 201.761719 40.09375 204.800781 40.113281 C 208.296875 40.136719 211.792969 38.984375 214.570312 36.859375 C 215.859375 35.871094 216.980469 34.699219 218.164062 33.625 C 220.0625 31.898438 222.167969 30.378906 223.960938 28.503906 C 225.757812 26.628906 227.257812 24.308594 227.535156 21.699219 C 227.820312 18.988281 226.765625 16.347656 225.570312 13.945312 C 224.378906 11.542969 223.003906 9.195312 222.515625 6.601562 C 222.125 4.542969 222.316406 2.398438 222.183594 0.265625 C 222.117188 -0.800781 221.964844 -1.878906 221.625 -2.902344 C 221.28125 -3.925781 220.742188 -4.902344 219.960938 -5.667969 C 219.246094 -6.367188 218.355469 -6.863281 217.421875 -7.195312 C 216.492188 -7.527344 215.515625 -7.707031 214.542969 -7.820312 C 212.597656 -8.050781 210.628906 -8.042969 208.785156 -8.570312 C 207.101562 -9.054688 205.53125 -9.992188 203.757812 -10.367188 C 202.773438 -10.574219 201.753906 -10.59375 200.761719 -10.4375 Z M 200.808594 -10.132812 C 201.765625 -10.285156 202.746094 -10.269531 203.695312 -10.066406 C 205.402344 -9.707031 206.96875 -8.777344 208.703125 -8.277344 C 210.601562 -7.734375 212.585938 -7.742188 214.507812 -7.515625 C 215.464844 -7.402344 216.421875 -7.230469 217.320312 -6.90625 C 218.222656 -6.585938 219.070312 -6.109375 219.746094 -5.449219 C 220.484375 -4.726562 221.003906 -3.792969 221.335938 -2.804688 C 221.664062 -1.816406 221.8125 -0.769531 221.878906 0.285156 C 222.007812 2.386719 221.816406 4.542969 222.214844 6.65625 C 222.714844 9.320312 224.109375 11.691406 225.296875 14.078125 C 226.484375 16.464844 227.507812 19.054688 227.230469 21.667969 C 226.964844 24.179688 225.507812 26.445312 223.742188 28.292969 C 221.972656 30.140625 219.875 31.65625 217.960938 33.398438 C 216.765625 34.484375 215.652344 35.648438 214.386719 36.617188 C 211.664062 38.699219 208.230469 39.832031 204.800781 39.8125 C 201.824219 39.792969 198.789062 38.867188 196.59375 36.875 C 195.5 35.882812 194.628906 34.628906 194.128906 33.242188 C 193.628906 31.851562 193.507812 30.320312 193.839844 28.886719 C 194.203125 27.300781 195.101562 25.871094 196.160156 24.605469 C 197.21875 23.34375 198.445312 22.222656 199.59375 21.011719 C 200.742188 19.796875 201.824219 18.472656 202.492188 16.921875 C 203.164062 15.367188 203.386719 13.558594 202.792969 11.953125 C 202.273438 10.546875 201.195312 9.445312 200.054688 8.519531 C 198.917969 7.597656 197.6875 6.804688 196.664062 5.800781 C 195.269531 4.445312 194.261719 2.691406 193.824219 0.796875 C 193.390625 -1.097656 193.542969 -3.128906 194.289062 -4.917969 C 195.035156 -6.707031 196.382812 -8.253906 198.074219 -9.195312 C 198.917969 -9.664062 199.851562 -9.984375 200.808594 -10.132812 Z M 200.808594 -10.132812 " fill-opacity="1" fill-rule="nonzero"/></g><path fill="#ffffff" d="M 121.242188 26.316406 C 116.785156 26.316406 113.171875 30.875 113.171875 36.5 C 113.171875 38.140625 113.480469 39.6875 114.023438 41.0625 C 115.132812 40.515625 116.199219 40.113281 117.21875 39.835938 C 116.382812 38.921875 115.851562 37.535156 115.851562 35.988281 C 115.851562 33.230469 117.535156 30.996094 119.613281 30.996094 C 121.6875 30.996094 123.371094 33.230469 123.371094 35.988281 C 123.371094 37.300781 122.988281 38.496094 122.363281 39.386719 C 124.808594 39.644531 126.804688 40.554688 128.277344 41.496094 C 128.9375 40.019531 129.3125 38.316406 129.3125 36.5 C 129.3125 30.875 125.699219 26.316406 121.242188 26.316406 " fill-opacity="1" fill-rule="nonzero"/><path fill="#211c1d" d="M 121.347656 35.113281 C 120.753906 35.113281 120.269531 34.472656 120.269531 33.683594 C 120.269531 32.894531 120.753906 32.253906 121.347656 32.253906 C 121.941406 32.253906 122.421875 32.894531 122.421875 33.683594 C 122.421875 34.472656 121.941406 35.113281 121.347656 35.113281 Z M 119.613281 30.996094 C 117.535156 30.996094 115.851562 33.230469 115.851562 35.988281 C 115.851562 37.535156 116.382812 38.921875 117.21875 39.835938 C 119.097656 39.324219 120.820312 39.226562 122.363281 39.386719 C 122.988281 38.496094 123.371094 37.300781 123.371094 35.988281 C 123.371094 33.230469 121.6875 30.996094 119.613281 30.996094 " fill-opacity="1" fill-rule="nonzero"/><path fill="#ffffff" d="M 121.347656 32.253906 C 120.753906 32.253906 120.269531 32.894531 120.269531 33.683594 C 120.269531 34.472656 120.753906 35.113281 121.347656 35.113281 C 121.941406 35.113281 122.421875 34.472656 122.421875 33.683594 C 122.421875 32.894531 121.941406 32.253906 121.347656 32.253906 " fill-opacity="1" fill-rule="nonzero"/><path fill="#211c1d" d="M 121.242188 25.902344 C 120.683594 25.929688 117.714844 26.734375 117.714844 26.734375 C 114.46875 28.34375 112.191406 32.109375 112.191406 36.5 C 112.191406 38.292969 112.570312 39.984375 113.242188 41.464844 C 113.507812 41.324219 113.765625 41.1875 114.023438 41.0625 C 113.480469 39.6875 113.171875 38.140625 113.171875 36.5 C 113.171875 30.875 116.785156 26.316406 121.242188 26.316406 C 125.699219 26.316406 129.3125 30.875 129.3125 36.5 C 129.3125 38.316406 128.9375 40.019531 128.277344 41.496094 C 128.53125 41.660156 128.769531 41.824219 128.992188 41.984375 C 129.820312 40.382812 130.296875 38.507812 130.296875 36.5 C 130.296875 30.644531 126.242188 25.902344 121.242188 25.902344 " fill-opacity="1" fill-rule="nonzero"/><path fill="#211c1d" d="M 125.46875 25.761719 C 125.46875 25.761719 121.199219 24.898438 117.71875 26.734375 C 117.71875 26.734375 117.71875 26.734375 117.714844 26.734375 C 117.714844 26.734375 120.683594 25.929688 121.242188 25.902344 C 121.242188 25.902344 123.476562 25.761719 125.46875 25.761719 " fill-opacity="1" fill-rule="nonzero"/><path fill="#211c1d" d="M 113.242188 41.464844 C 113.242188 41.464844 117.625 39.328125 120.652344 39.460938 C 123.675781 39.589844 126.097656 40.171875 128.992188 41.984375 C 128.992188 41.984375 126.101562 39.320312 120.671875 39.320312 C 116.347656 39.320312 113.242188 41.464844 113.242188 41.464844 " fill-opacity="1" fill-rule="nonzero"/><path fill="#211c1d" d="M 113.242188 41.464844 L 112.367188 41.984375 C 112.367188 41.984375 114.15625 41.15625 114.933594 40.742188 C 114.933594 40.742188 113.941406 41.054688 113.242188 41.464844 " fill-opacity="1" fill-rule="nonzero"/><g clip-path="url(#c2f4311c34)"><path fill="#211c1d" d="M 127.785156 41.285156 C 127.785156 41.285156 129.605469 42.410156 131.425781 44.742188 C 131.425781 44.742188 129.90625 42.605469 128.992188 41.984375 C 128.714844 41.792969 128.1875 41.34375 127.785156 41.285156 " fill-opacity="1" fill-rule="nonzero"/></g><g clip-path="url(#5bfb139deb)"><path fill="#211c1d" d="M 128.992188 41.984375 C 128.992188 41.984375 130.46875 41.617188 132.355469 41.496094 C 132.355469 41.496094 131.394531 41.464844 129.0625 41.839844 C 129.0625 41.839844 128.757812 41.804688 128.992188 41.984375 " fill-opacity="1" fill-rule="nonzero"/></g><path fill="#211c1d" d="M 128.992188 41.984375 L 130.945312 42.664062 C 130.945312 42.664062 130.332031 42.257812 128.992188 41.984375 " fill-opacity="1" fill-rule="nonzero"/><path fill="#211c1d" d="M 114.910156 21.191406 C 114.910156 21.191406 125.632812 15.742188 131.425781 26.734375 C 131.425781 26.734375 131.71875 14.761719 114.988281 18.773438 C 114.988281 18.773438 113.417969 19.828125 114.910156 21.191406 " fill-opacity="1" fill-rule="nonzero"/><path fill="#ffffff" d="M 99.339844 26.316406 C 103.796875 26.316406 107.410156 30.875 107.410156 36.5 C 107.410156 38.140625 107.101562 39.6875 106.554688 41.0625 C 105.449219 40.515625 104.382812 40.113281 103.363281 39.835938 C 104.199219 38.921875 104.730469 37.535156 104.730469 35.988281 C 104.730469 33.230469 103.046875 30.996094 100.96875 30.996094 C 98.890625 30.996094 97.207031 33.230469 97.207031 35.988281 C 97.207031 37.300781 97.589844 38.496094 98.21875 39.386719 C 95.773438 39.644531 93.777344 40.554688 92.304688 41.496094 C 91.644531 40.019531 91.269531 38.316406 91.269531 36.5 C 91.269531 30.875 94.882812 26.316406 99.339844 26.316406 " fill-opacity="1" fill-rule="nonzero"/><path fill="#211c1d" d="M 98.160156 33.683594 C 98.160156 32.894531 98.640625 32.253906 99.234375 32.253906 C 99.828125 32.253906 100.308594 32.894531 100.308594 33.683594 C 100.308594 34.472656 99.828125 35.113281 99.234375 35.113281 C 98.640625 35.113281 98.160156 34.472656 98.160156 33.683594 Z M 97.207031 35.988281 C 97.207031 37.300781 97.589844 38.496094 98.21875 39.386719 C 99.761719 39.226562 101.480469 39.324219 103.363281 39.835938 C 104.199219 38.921875 104.730469 37.535156 104.730469 35.988281 C 104.730469 33.230469 103.046875 30.996094 100.96875 30.996094 C 98.890625 30.996094 97.207031 33.230469 97.207031 35.988281 " fill-opacity="1" fill-rule="nonzero"/><path fill="#ffffff" d="M 99.234375 32.253906 C 99.828125 32.253906 100.308594 32.894531 100.308594 33.683594 C 100.308594 34.472656 99.828125 35.113281 99.234375 35.113281 C 98.640625 35.113281 98.160156 34.472656 98.160156 33.683594 C 98.160156 32.894531 98.640625 32.253906 99.234375 32.253906 " fill-opacity="1" fill-rule="nonzero"/><path fill="#211c1d" d="M 99.339844 25.902344 C 99.898438 25.929688 102.863281 26.734375 102.867188 26.734375 C 106.113281 28.34375 108.390625 32.109375 108.390625 36.5 C 108.390625 38.292969 108.011719 39.984375 107.335938 41.464844 C 107.074219 41.324219 106.8125 41.1875 106.554688 41.0625 C 107.101562 39.6875 107.410156 38.140625 107.410156 36.5 C 107.410156 30.875 103.796875 26.316406 99.339844 26.316406 C 94.882812 26.316406 91.269531 30.875 91.269531 36.5 C 91.269531 38.316406 91.644531 40.019531 92.304688 41.496094 C 92.050781 41.660156 91.8125 41.824219 91.589844 41.984375 C 90.761719 40.382812 90.285156 38.507812 90.285156 36.5 C 90.285156 30.644531 94.339844 25.902344 99.339844 25.902344 " fill-opacity="1" fill-rule="nonzero"/><path fill="#211c1d" d="M 95.113281 25.761719 C 95.113281 25.761719 99.382812 24.898438 102.863281 26.734375 C 102.867188 26.734375 102.867188 26.734375 102.867188 26.734375 C 102.863281 26.734375 99.898438 25.929688 99.339844 25.902344 C 99.339844 25.902344 97.101562 25.761719 95.113281 25.761719 " fill-opacity="1" fill-rule="nonzero"/><path fill="#211c1d" d="M 107.335938 41.464844 C 107.335938 41.464844 102.953125 39.328125 99.929688 39.460938 C 96.90625 39.589844 94.484375 40.171875 91.589844 41.984375 C 91.589844 41.984375 94.480469 39.320312 99.910156 39.320312 C 104.230469 39.320312 107.335938 41.464844 107.335938 41.464844 " fill-opacity="1" fill-rule="nonzero"/><path fill="#211c1d" d="M 107.335938 41.464844 L 108.214844 41.984375 C 108.214844 41.984375 106.425781 41.15625 105.648438 40.742188 C 105.648438 40.742188 106.640625 41.054688 107.335938 41.464844 " fill-opacity="1" fill-rule="nonzero"/><g clip-path="url(#2c4287a125)"><path fill="#211c1d" d="M 92.796875 41.285156 C 92.796875 41.285156 90.976562 42.410156 89.15625 44.742188 C 89.15625 44.742188 90.675781 42.605469 91.589844 41.984375 C 91.867188 41.792969 92.394531 41.34375 92.796875 41.285156 " fill-opacity="1" fill-rule="nonzero"/></g><g clip-path="url(#70bc1f110f)"><path fill="#211c1d" d="M 91.589844 41.984375 C 91.589844 41.984375 90.113281 41.617188 88.226562 41.496094 C 88.226562 41.496094 89.1875 41.464844 91.519531 41.839844 C 91.519531 41.839844 91.820312 41.804688 91.589844 41.984375 " fill-opacity="1" fill-rule="nonzero"/></g><path fill="#211c1d" d="M 91.589844 41.984375 L 89.632812 42.664062 C 89.632812 42.664062 90.25 42.257812 91.589844 41.984375 " fill-opacity="1" fill-rule="nonzero"/><path fill="#211c1d" d="M 105.671875 21.191406 C 105.671875 21.191406 94.949219 15.742188 89.15625 26.734375 C 89.15625 26.734375 88.863281 14.761719 105.59375 18.773438 C 105.59375 18.773438 107.164062 19.828125 105.671875 21.191406 " fill-opacity="1" fill-rule="nonzero"/><g fill="#000000" fill-opacity="1"><g transform="translate(85.952642, 69.176054)"><g><path d="M 0.640625 0 L 0.640625 -5.1875 L 3.921875 -5.1875 L 3.921875 -4.6875 L 1.234375 -4.6875 L 1.234375 -2.890625 L 3.765625 -2.890625 L 3.765625 -2.375 L 1.234375 -2.375 L 1.234375 -0.5 L 3.921875 -0.5 L 3.921875 0 Z M 0.640625 0 "/></g></g></g><g fill="#000000" fill-opacity="1"><g transform="translate(90.548281, 69.176054)"><g><path d="M 2.28125 0.0625 C 1.476562 0.0625 0.832031 -0.15625 0.34375 -0.59375 L 0.578125 -1.0625 C 0.835938 -0.84375 1.097656 -0.6875 1.359375 -0.59375 C 1.628906 -0.5 1.941406 -0.453125 2.296875 -0.453125 C 2.710938 -0.453125 3.03125 -0.53125 3.25 -0.6875 C 3.476562 -0.851562 3.59375 -1.085938 3.59375 -1.390625 C 3.59375 -1.554688 3.535156 -1.691406 3.421875 -1.796875 C 3.316406 -1.910156 3.175781 -2 3 -2.0625 C 2.820312 -2.125 2.585938 -2.191406 2.296875 -2.265625 C 1.898438 -2.347656 1.570312 -2.441406 1.3125 -2.546875 C 1.050781 -2.648438 0.835938 -2.796875 0.671875 -2.984375 C 0.515625 -3.179688 0.4375 -3.4375 0.4375 -3.75 C 0.4375 -4.039062 0.515625 -4.296875 0.671875 -4.515625 C 0.828125 -4.742188 1.046875 -4.921875 1.328125 -5.046875 C 1.617188 -5.179688 1.953125 -5.25 2.328125 -5.25 C 2.691406 -5.25 3.023438 -5.191406 3.328125 -5.078125 C 3.640625 -4.960938 3.90625 -4.800781 4.125 -4.59375 L 3.890625 -4.125 C 3.648438 -4.332031 3.40625 -4.484375 3.15625 -4.578125 C 2.90625 -4.679688 2.628906 -4.734375 2.328125 -4.734375 C 1.921875 -4.734375 1.601562 -4.644531 1.375 -4.46875 C 1.15625 -4.300781 1.046875 -4.066406 1.046875 -3.765625 C 1.046875 -3.503906 1.144531 -3.304688 1.34375 -3.171875 C 1.539062 -3.046875 1.84375 -2.929688 2.25 -2.828125 C 2.695312 -2.722656 3.046875 -2.625 3.296875 -2.53125 C 3.554688 -2.445312 3.769531 -2.3125 3.9375 -2.125 C 4.113281 -1.945312 4.203125 -1.707031 4.203125 -1.40625 C 4.203125 -1.113281 4.125 -0.859375 3.96875 -0.640625 C 3.8125 -0.421875 3.585938 -0.25 3.296875 -0.125 C 3.015625 0 2.675781 0.0625 2.28125 0.0625 Z M 2.28125 0.0625 "/></g></g></g><g fill="#000000" fill-opacity="1"><g transform="translate(95.398836, 69.176054)"><g><path d="M 1.890625 0 L 1.890625 -4.671875 L 0.09375 -4.671875 L 0.09375 -5.1875 L 4.296875 -5.1875 L 4.296875 -4.671875 L 2.5 -4.671875 L 2.5 0 Z M 1.890625 0 "/></g></g></g><g fill="#000000" fill-opacity="1"><g transform="translate(100.103727, 69.176054)"><g><path d="M 2.671875 0.0625 C 1.984375 0.0625 1.46875 -0.113281 1.125 -0.46875 C 0.78125 -0.820312 0.609375 -1.34375 0.609375 -2.03125 L 0.609375 -5.1875 L 1.1875 -5.1875 L 1.1875 -1.984375 C 1.1875 -1.472656 1.3125 -1.085938 1.5625 -0.828125 C 1.8125 -0.578125 2.179688 -0.453125 2.671875 -0.453125 C 3.148438 -0.453125 3.507812 -0.578125 3.75 -0.828125 C 4 -1.085938 4.125 -1.472656 4.125 -1.984375 L 4.125 -5.1875 L 4.71875 -5.1875 L 4.71875 -2.03125 C 4.71875 -1.34375 4.539062 -0.820312 4.1875 -0.46875 C 3.84375 -0.113281 3.335938 0.0625 2.671875 0.0625 Z M 2.671875 0.0625 "/></g></g></g><g fill="#000000" fill-opacity="1"><g transform="translate(105.740854, 69.176054)"><g><path d="M 0.640625 -5.1875 L 2.375 -5.1875 C 3.207031 -5.1875 3.847656 -4.960938 4.296875 -4.515625 C 4.753906 -4.066406 4.984375 -3.425781 4.984375 -2.59375 C 4.984375 -1.769531 4.753906 -1.128906 4.296875 -0.671875 C 3.847656 -0.222656 3.207031 0 2.375 0 L 0.640625 0 Z M 2.34375 -0.515625 C 3.007812 -0.515625 3.507812 -0.6875 3.84375 -1.03125 C 4.1875 -1.382812 4.359375 -1.90625 4.359375 -2.59375 C 4.359375 -3.976562 3.6875 -4.671875 2.34375 -4.671875 L 1.234375 -4.671875 L 1.234375 -0.515625 Z M 2.34375 -0.515625 "/></g></g></g><g fill="#000000" fill-opacity="1"><g transform="translate(111.487224, 69.176054)"><g><path d="M 0.640625 0 L 0.640625 -5.1875 L 1.234375 -5.1875 L 1.234375 0 Z M 0.640625 0 "/></g></g></g><g fill="#000000" fill-opacity="1"><g transform="translate(113.679439, 69.176054)"><g><path d="M 4.609375 0 L 4.03125 -1.328125 L 1.328125 -1.328125 L 0.75 0 L 0.125 0 L 2.40625 -5.1875 L 2.9375 -5.1875 L 5.21875 0 Z M 1.53125 -1.828125 L 3.828125 -1.828125 L 2.671875 -4.5 Z M 1.53125 -1.828125 "/></g></g></g><g fill="#000000" fill-opacity="1"><g transform="translate(119.338413, 69.176054)"><g><path d="M 4.234375 -5.1875 L 4.796875 -5.1875 L 4.796875 0 L 4.328125 0 L 1.203125 -4.171875 L 1.203125 0 L 0.640625 0 L 0.640625 -5.1875 L 1.09375 -5.1875 L 4.234375 -1.015625 Z M 4.234375 -5.1875 "/></g></g></g><g fill="#000000" fill-opacity="1"><g transform="translate(125.084785, 69.176054)"><g><path d="M 1.890625 0 L 1.890625 -4.671875 L 0.09375 -4.671875 L 0.09375 -5.1875 L 4.296875 -5.1875 L 4.296875 -4.671875 L 2.5 -4.671875 L 2.5 0 Z M 1.890625 0 "/></g></g></g><g fill="#000000" fill-opacity="1"><g transform="translate(129.789675, 69.176054)"><g><path d="M 0.640625 0 L 0.640625 -5.1875 L 3.921875 -5.1875 L 3.921875 -4.6875 L 1.234375 -4.6875 L 1.234375 -2.890625 L 3.765625 -2.890625 L 3.765625 -2.375 L 1.234375 -2.375 L 1.234375 -0.5 L 3.921875 -0.5 L 3.921875 0 Z M 0.640625 0 "/></g></g></g><g fill="#000000" fill-opacity="1"><g transform="translate(134.385314, 69.176054)"><g><path d="M 2.28125 0.0625 C 1.476562 0.0625 0.832031 -0.15625 0.34375 -0.59375 L 0.578125 -1.0625 C 0.835938 -0.84375 1.097656 -0.6875 1.359375 -0.59375 C 1.628906 -0.5 1.941406 -0.453125 2.296875 -0.453125 C 2.710938 -0.453125 3.03125 -0.53125 3.25 -0.6875 C 3.476562 -0.851562 3.59375 -1.085938 3.59375 -1.390625 C 3.59375 -1.554688 3.535156 -1.691406 3.421875 -1.796875 C 3.316406 -1.910156 3.175781 -2 3 -2.0625 C 2.820312 -2.125 2.585938 -2.191406 2.296875 -2.265625 C 1.898438 -2.347656 1.570312 -2.441406 1.3125 -2.546875 C 1.050781 -2.648438 0.835938 -2.796875 0.671875 -2.984375 C 0.515625 -3.179688 0.4375 -3.4375 0.4375 -3.75 C 0.4375 -4.039062 0.515625 -4.296875 0.671875 -4.515625 C 0.828125 -4.742188 1.046875 -4.921875 1.328125 -5.046875 C 1.617188 -5.179688 1.953125 -5.25 2.328125 -5.25 C 2.691406 -5.25 3.023438 -5.191406 3.328125 -5.078125 C 3.640625 -4.960938 3.90625 -4.800781 4.125 -4.59375 L 3.890625 -4.125 C 3.648438 -4.332031 3.40625 -4.484375 3.15625 -4.578125 C 2.90625 -4.679688 2.628906 -4.734375 2.328125 -4.734375 C 1.921875 -4.734375 1.601562 -4.644531 1.375 -4.46875 C 1.15625 -4.300781 1.046875 -4.066406 1.046875 -3.765625 C 1.046875 -3.503906 1.144531 -3.304688 1.34375 -3.171875 C 1.539062 -3.046875 1.84375 -2.929688 2.25 -2.828125 C 2.695312 -2.722656 3.046875 -2.625 3.296875 -2.53125 C 3.554688 -2.445312 3.769531 -2.3125 3.9375 -2.125 C 4.113281 -1.945312 4.203125 -1.707031 4.203125 -1.40625 C 4.203125 -1.113281 4.125 -0.859375 3.96875 -0.640625 C 3.8125 -0.421875 3.585938 -0.25 3.296875 -0.125 C 3.015625 0 2.675781 0.0625 2.28125 0.0625 Z M 2.28125 0.0625 "/></g></g></g></svg>